<svg version="1.1" xmlns="http://www.w3.org/2000/svg" viewBox="0 0 1395 746" width="1395" height="746" filter="invert(93%) hue-rotate(180deg)" class="excalidraw-svg">
  <!-- svg-source:excalidraw -->
  
  <defs>
    <style class="style-fonts">
      @font-face {
        font-family: "Virgil";
        src: url("https://excalidraw.com/Virgil.woff2");
      }
      @font-face {
        font-family: "Cascadia";
        src: url("https://excalidraw.com/Cascadia.woff2");
      }
      @font-face {
        font-family: "Assistant";
        src: url("https://excalidraw.com/Assistant-Regular.woff2");
      }
    </style>
    
  </defs>
  <rect x="0" y="0" width="1395" height="746" fill="#ffffff"></rect><g transform="translate(42 321.5) rotate(0 16 -3.5)" stroke="none"><path fill="#1e1e1e" d="M -0.14,0.87 Q -0.14,0.87 -1.86,0.63 -3.58,0.39 -5.57,0.86 -7.55,1.33 -9.44,2.61 -11.33,3.90 -12.94,6.07 -14.55,8.25 -15.51,10.55 -16.47,12.85 -17.17,15.52 -17.87,18.18 -17.62,20.24 -17.37,22.30 -16.63,23.25 -15.89,24.20 -14.14,23.28 -12.39,22.35 -9.69,19.49 -7.00,16.64 -3.85,11.16 -0.71,5.69 2.35,-1.22 5.41,-8.14 7.27,-14.21 9.13,-20.27 10.20,-24.02 11.26,-27.77 11.41,-29.66 11.56,-31.55 11.62,-31.69 11.68,-31.82 11.77,-31.94 11.85,-32.06 11.97,-32.15 12.08,-32.25 12.22,-32.31 12.35,-32.37 12.49,-32.40 12.64,-32.43 12.78,-32.42 12.93,-32.42 13.07,-32.38 13.21,-32.34 13.34,-32.26 13.47,-32.19 13.58,-32.09 13.68,-31.98 13.76,-31.86 13.84,-31.73 13.89,-31.60 13.93,-31.46 13.94,-31.31 13.95,-31.16 13.93,-31.02 13.91,-30.87 13.24,-30.28 12.57,-29.69 12.26,-27.80 11.95,-25.91 11.75,-22.22 11.56,-18.53 11.75,-12.95 11.95,-7.38 13.17,-1.64 14.39,4.09 16.57,8.72 18.76,13.35 21.80,15.74 24.83,18.12 28.19,18.27 31.55,18.41 35.12,16.57 38.70,14.73 41.88,10.91 45.06,7.09 46.67,2.71 48.29,-1.67 48.42,-4.52 48.54,-7.37 48.08,-8.23 47.62,-9.09 45.94,-8.94 44.26,-8.80 42.29,-6.91 40.33,-5.03 38.93,-1.51 37.54,1.99 36.63,5.74 35.71,9.49 36.37,11.98 37.03,14.47 38.78,16.53 40.54,18.60 40.60,18.69 40.66,18.78 40.69,18.88 40.72,18.98 40.72,19.09 40.72,19.19 40.68,19.29 40.64,19.39 40.58,19.47 40.51,19.56 40.42,19.61 40.33,19.67 40.23,19.70 40.12,19.72 40.02,19.71 39.91,19.70 39.81,19.66 39.72,19.62 39.64,19.55 39.56,19.48 39.51,19.38 39.46,19.29 39.44,19.19 39.42,19.08 39.43,18.98 39.45,18.87 39.49,18.78 39.54,18.68 39.62,18.61 39.69,18.53 39.79,18.48 39.88,18.44 39.99,18.42 40.09,18.41 40.20,18.43 40.30,18.45 40.39,18.50 40.49,18.56 40.56,18.64 40.63,18.71 40.67,18.81 40.71,18.91 40.72,19.02 40.73,19.12 40.70,19.23 40.68,19.33 40.62,19.42 40.56,19.51 40.48,19.57 40.39,19.64 40.29,19.68 40.19,19.71 40.09,19.71 39.98,19.72 39.88,19.68 39.78,19.65 39.69,19.59 39.61,19.53 39.61,19.53 39.61,19.53 37.18,17.38 34.75,15.24 33.92,12.13 33.09,9.01 34.07,4.98 35.05,0.96 36.78,-2.98 38.51,-6.93 41.17,-9.09 43.83,-11.24 46.28,-11.13 48.73,-11.02 49.86,-9.25 50.99,-7.49 50.80,-4.16 50.62,-0.83 48.80,3.90 46.97,8.65 43.42,12.77 39.86,16.90 35.71,18.87 31.55,20.85 27.54,20.50 23.53,20.15 20.06,17.33 16.58,14.50 14.27,9.56 11.95,4.62 10.70,-1.33 9.46,-7.28 9.26,-12.98 9.06,-18.67 9.29,-22.57 9.52,-26.47 10.54,-29.01 11.56,-31.55 11.62,-31.69 11.68,-31.82 11.77,-31.94 11.85,-32.06 11.97,-32.15 12.08,-32.25 12.22,-32.31 12.35,-32.37 12.49,-32.40 12.64,-32.43 12.78,-32.42 12.93,-32.42 13.07,-32.38 13.21,-32.34 13.34,-32.26 13.47,-32.19 13.58,-32.09 13.68,-31.98 13.76,-31.86 13.84,-31.73 13.89,-31.60 13.93,-31.46 13.94,-31.31 13.96,-31.16 13.93,-31.02 13.91,-30.87 13.70,-29.00 13.50,-27.13 12.39,-23.37 11.27,-19.61 9.35,-13.43 7.43,-7.25 4.30,-0.23 1.18,6.78 -2.12,12.46 -5.42,18.13 -8.43,21.21 -11.44,24.29 -13.64,25.16 -15.84,26.02 -17.62,24.43 -19.41,22.83 -19.69,20.25 -19.98,17.68 -19.23,14.84 -18.48,12.00 -17.38,9.48 -16.29,6.95 -14.41,4.54 -12.53,2.13 -10.28,0.72 -8.02,-0.67 -5.66,-1.10 -3.31,-1.54 -1.58,-1.20 0.14,-0.87 0.24,-0.84 0.34,-0.81 0.44,-0.75 0.53,-0.70 0.61,-0.63 0.68,-0.55 0.74,-0.46 0.80,-0.37 0.83,-0.27 0.86,-0.17 0.87,-0.06 0.88,0.03 0.86,0.14 0.84,0.24 0.80,0.34 0.76,0.44 0.69,0.53 0.63,0.61 0.55,0.68 0.46,0.74 0.37,0.79 0.27,0.83 0.17,0.86 0.06,0.88 -0.03,0.87 -0.14,0.87 -0.14,0.87 L -0.14,0.87 Z"></path></g><g transform="translate(103 349.5) rotate(0 13.5 -15)" stroke="none"><path fill="#1e1e1e" d="M -0.21,-0.87 Q -0.21,-0.87 0.90,-1.16 2.03,-1.45 4.08,-3.22 6.12,-4.98 9.29,-8.87 12.47,-12.76 15.84,-17.57 19.21,-22.38 21.19,-26.12 23.17,-29.85 23.70,-31.65 24.23,-33.45 24.17,-34.27 24.10,-35.09 24.15,-35.20 24.20,-35.31 24.27,-35.41 24.35,-35.50 24.44,-35.58 24.54,-35.65 24.65,-35.71 24.76,-35.76 24.87,-35.78 24.99,-35.80 25.11,-35.80 25.23,-35.79 25.35,-35.76 25.46,-35.72 25.57,-35.66 25.67,-35.60 25.76,-35.51 25.84,-35.43 25.91,-35.33 25.97,-35.22 26.01,-35.11 26.04,-34.99 26.05,-34.87 26.06,-34.75 26.04,-34.64 26.02,-34.52 25.38,-33.57 24.75,-32.63 24.61,-30.77 24.47,-28.92 24.39,-26.36 24.31,-23.80 24.28,-20.69 24.24,-17.59 24.22,-13.97 24.19,-10.35 23.55,-6.43 22.90,-2.51 21.94,1.02 20.97,4.57 20.93,4.66 20.90,4.76 20.83,4.84 20.76,4.93 20.67,4.98 20.58,5.04 20.47,5.06 20.37,5.08 20.26,5.07 20.16,5.06 20.06,5.02 19.97,4.97 19.89,4.90 19.81,4.83 19.76,4.73 19.71,4.64 19.69,4.54 19.67,4.43 19.69,4.33 19.71,4.22 19.76,4.13 19.81,4.03 19.88,3.96 19.96,3.89 20.06,3.84 20.15,3.80 20.26,3.78 20.36,3.77 20.47,3.79 20.57,3.82 20.66,3.87 20.75,3.92 20.82,4.01 20.89,4.09 20.93,4.18 20.97,4.28 20.98,4.39 20.98,4.50 20.96,4.60 20.93,4.70 20.87,4.79 20.81,4.88 20.73,4.94 20.64,5.01 20.54,5.04 20.44,5.08 20.33,5.08 20.23,5.08 20.13,5.04 20.03,5.01 19.94,4.95 19.86,4.88 19.80,4.79 19.74,4.71 19.71,4.60 19.68,4.50 19.68,4.40 19.69,4.29 19.69,4.29 19.69,4.29 20.25,0.72 20.82,-2.83 21.34,-6.60 21.85,-10.36 21.87,-13.99 21.88,-17.62 21.94,-20.76 22.00,-23.89 22.13,-26.54 22.26,-29.19 22.63,-31.47 23.00,-33.75 23.55,-34.42 24.10,-35.09 24.15,-35.20 24.20,-35.31 24.27,-35.41 24.35,-35.50 24.44,-35.58 24.54,-35.65 24.65,-35.71 24.76,-35.76 24.87,-35.78 24.99,-35.80 25.11,-35.80 25.23,-35.79 25.35,-35.76 25.46,-35.72 25.57,-35.66 25.67,-35.60 25.76,-35.51 25.84,-35.43 25.91,-35.33 25.97,-35.22 26.01,-35.11 26.04,-34.99 26.05,-34.87 26.06,-34.75 26.04,-34.64 26.02,-34.52 26.05,-33.73 26.08,-32.94 25.47,-30.95 24.86,-28.96 22.81,-25.13 20.76,-21.30 17.35,-16.43 13.94,-11.56 10.63,-7.55 7.33,-3.54 4.94,-1.62 2.56,0.30 1.39,0.59 0.21,0.87 0.11,0.89 0.00,0.90 -0.10,0.89 -0.21,0.87 -0.31,0.83 -0.41,0.80 -0.50,0.74 -0.59,0.67 -0.66,0.59 -0.74,0.51 -0.79,0.41 -0.84,0.32 -0.87,0.21 -0.89,0.11 -0.89,0.00 -0.89,-0.10 -0.87,-0.21 -0.84,-0.31 -0.79,-0.41 -0.74,-0.51 -0.67,-0.59 -0.60,-0.67 -0.51,-0.73 -0.42,-0.79 -0.32,-0.83 -0.21,-0.87 -0.21,-0.87 L -0.21,-0.87 Z"></path></g><g transform="translate(143 342.5) rotate(0 12 -8)" stroke="none"><path fill="#1e1e1e" d="M 0.26,-0.80 Q 0.26,-0.80 1.00,-0.54 1.74,-0.29 2.70,-1.02 3.66,-1.76 5.53,-3.47 7.40,-5.18 9.60,-7.89 11.80,-10.61 13.91,-13.22 16.01,-15.83 17.93,-17.64 19.85,-19.44 20.25,-19.04 20.65,-18.64 20.59,-16.29 20.54,-13.94 20.46,-10.81 20.38,-7.67 20.63,-4.37 20.87,-1.08 21.38,0.47 21.89,2.04 22.88,3.04 23.88,4.03 23.94,4.12 24.01,4.20 24.05,4.29 24.09,4.39 24.10,4.50 24.10,4.61 24.08,4.71 24.05,4.81 23.99,4.90 23.93,4.99 23.85,5.05 23.76,5.12 23.66,5.15 23.56,5.18 23.45,5.18 23.35,5.18 23.25,5.15 23.15,5.12 23.06,5.05 22.98,4.99 22.92,4.90 22.86,4.81 22.83,4.71 22.80,4.61 22.80,4.50 22.81,4.40 22.85,4.30 22.89,4.20 22.96,4.12 23.02,4.04 23.12,3.98 23.21,3.93 23.31,3.90 23.41,3.88 23.52,3.89 23.63,3.90 23.72,3.95 23.82,3.99 23.90,4.06 23.97,4.14 24.02,4.23 24.07,4.32 24.09,4.43 24.11,4.53 24.09,4.64 24.07,4.74 24.03,4.84 23.98,4.93 23.90,5.01 23.82,5.08 23.73,5.12 23.63,5.17 23.52,5.18 23.42,5.19 23.31,5.17 23.21,5.15 23.12,5.09 23.03,5.04 23.03,5.04 23.03,5.04 21.56,3.96 20.08,2.87 19.23,1.00 18.38,-0.86 18.11,-4.29 17.85,-7.73 17.94,-10.96 18.03,-14.18 18.33,-15.88 18.63,-17.57 18.18,-16.01 17.73,-14.44 15.60,-11.84 13.47,-9.23 11.13,-6.43 8.80,-3.63 6.75,-1.84 4.70,-0.05 3.20,0.69 1.70,1.44 0.71,1.12 -0.26,0.80 -0.36,0.76 -0.45,0.71 -0.53,0.65 -0.61,0.58 -0.67,0.50 -0.73,0.42 -0.77,0.33 -0.81,0.23 -0.83,0.13 -0.84,0.03 -0.84,-0.06 -0.83,-0.16 -0.80,-0.26 -0.76,-0.36 -0.71,-0.45 -0.65,-0.53 -0.58,-0.60 -0.51,-0.67 -0.42,-0.73 -0.33,-0.78 -0.23,-0.81 -0.13,-0.83 -0.03,-0.84 0.06,-0.84 0.16,-0.82 0.26,-0.80 0.26,-0.80 L 0.26,-0.80 Z"></path></g><g transform="translate(165 303.5) rotate(0 -4 5.5)" stroke="none"><path fill="#1e1e1e" d="M 0.26,0.94 Q 0.26,0.94 -1.71,1.52 -3.69,2.09 -4.58,2.61 -5.47,3.14 -4.53,4.63 -3.60,6.13 -2.35,7.96 -1.09,9.80 -1.04,9.89 -0.99,9.99 -0.97,10.09 -0.95,10.19 -0.97,10.30 -0.99,10.40 -1.04,10.50 -1.08,10.59 -1.16,10.67 -1.24,10.74 -1.33,10.79 -1.43,10.83 -1.53,10.84 -1.64,10.86 -1.74,10.84 -1.85,10.81 -1.94,10.76 -2.03,10.71 -2.10,10.63 -2.17,10.54 -2.21,10.45 -2.25,10.35 -2.26,10.24 -2.26,10.14 -2.24,10.03 -2.21,9.93 -2.15,9.84 -2.09,9.75 -2.01,9.69 -1.92,9.62 -1.82,9.59 -1.72,9.55 -1.62,9.55 -1.51,9.55 -1.41,9.59 -1.31,9.62 -1.22,9.68 -1.14,9.75 -1.08,9.83 -1.02,9.92 -0.99,10.02 -0.96,10.12 -0.96,10.23 -0.97,10.34 -1.01,10.44 -1.04,10.53 -1.11,10.62 -1.18,10.70 -1.27,10.75 -1.36,10.81 -1.47,10.83 -1.57,10.86 -1.67,10.85 -1.78,10.84 -1.88,10.79 -1.97,10.75 -2.05,10.68 -2.13,10.60 -2.13,10.60 -2.13,10.60 -3.67,8.84 -5.21,7.07 -6.17,5.33 -7.14,3.58 -5.75,1.89 -4.35,0.20 -2.31,-0.37 -0.26,-0.94 -0.15,-0.96 -0.03,-0.98 0.08,-0.97 0.20,-0.96 0.31,-0.92 0.42,-0.88 0.52,-0.82 0.62,-0.75 0.70,-0.67 0.78,-0.58 0.84,-0.48 0.90,-0.38 0.93,-0.26 0.97,-0.15 0.97,-0.03 0.97,0.08 0.95,0.19 0.93,0.31 0.87,0.42 0.82,0.52 0.75,0.61 0.67,0.71 0.58,0.78 0.48,0.85 0.37,0.89 0.26,0.94 0.26,0.94 L 0.26,0.94 Z"></path></g><g transform="translate(198 321.5) rotate(0 32.5 34)" stroke="none"><path fill="#1e1e1e" d="M 0.65,0.65 Q 0.65,0.65 -0.76,2.11 -2.17,3.57 -4.46,5.95 -6.74,8.33 -8.18,10.94 -9.62,13.56 -10.00,15.45 -10.38,17.34 -9.74,17.94 -9.10,18.54 -7.28,18.02 -5.47,17.50 -3.34,15.71 -1.22,13.92 0.55,11.50 2.32,9.08 3.34,6.67 4.36,4.27 5.16,2.69 5.96,1.12 6.87,1.50 7.78,1.88 7.89,3.34 8.01,4.81 8.33,7.98 8.66,11.15 9.10,15.97 9.54,20.78 9.75,26.88 9.96,32.99 9.48,39.38 9.01,45.76 7.35,51.74 5.69,57.71 3.22,62.63 0.75,67.54 -2.23,70.12 -5.22,72.70 -7.60,71.84 -9.98,70.98 -11.04,67.78 -12.09,64.57 -11.01,59.31 -9.92,54.04 -7.09,48.61 -4.26,43.17 -0.16,37.41 3.93,31.64 8.84,25.73 13.75,19.82 18.72,14.15 23.68,8.48 27.50,4.07 31.33,-0.34 33.97,-2.60 36.61,-4.87 38.56,-4.62 40.50,-4.38 41.07,-2.29 41.64,-0.21 41.26,3.43 40.89,7.07 40.44,11.40 39.99,15.73 39.79,18.94 39.60,22.15 39.51,23.23 39.42,24.31 41.10,23.61 42.78,22.91 44.72,19.93 46.66,16.94 49.64,13.25 52.62,9.55 55.79,7.28 58.95,5.01 61.72,4.88 64.48,4.74 66.93,5.95 69.39,7.15 73.03,9.78 76.67,12.41 76.75,12.48 76.83,12.55 76.89,12.64 76.94,12.73 76.96,12.84 76.99,12.94 76.97,13.05 76.96,13.15 76.92,13.25 76.87,13.34 76.80,13.42 76.72,13.50 76.63,13.55 76.53,13.59 76.43,13.61 76.32,13.63 76.22,13.61 76.11,13.59 76.02,13.54 75.93,13.49 75.86,13.41 75.78,13.33 75.74,13.24 75.70,13.14 75.69,13.03 75.67,12.93 75.70,12.82 75.72,12.72 75.78,12.63 75.83,12.54 75.92,12.47 76.00,12.40 76.10,12.37 76.20,12.33 76.30,12.32 76.41,12.32 76.51,12.35 76.61,12.38 76.70,12.44 76.79,12.50 76.85,12.58 76.91,12.67 76.95,12.77 76.98,12.87 76.98,12.98 76.98,13.08 76.94,13.18 76.91,13.28 76.84,13.37 76.78,13.45 76.69,13.51 76.60,13.57 76.50,13.60 76.39,13.62 76.29,13.62 76.18,13.61 76.08,13.57 75.99,13.53 75.99,13.53 75.99,13.53 72.08,11.51 68.17,9.49 66.27,8.43 64.37,7.37 62.30,7.32 60.24,7.27 57.46,9.25 54.67,11.24 51.76,14.85 48.86,18.45 46.42,21.84 43.98,25.22 42.12,25.97 40.26,26.71 38.61,24.43 36.96,22.15 37.15,18.80 37.33,15.45 37.78,11.11 38.23,6.77 38.63,3.55 39.02,0.33 38.52,-1.19 38.02,-2.72 35.68,-0.66 33.34,1.40 29.51,5.81 25.68,10.23 20.74,15.88 15.80,21.52 10.94,27.35 6.09,33.18 2.09,38.80 -1.90,44.41 -4.60,49.53 -7.30,54.64 -8.40,59.32 -9.49,64.00 -8.93,66.59 -8.36,69.19 -6.91,69.81 -5.47,70.43 -3.52,68.36 -1.58,66.30 0.80,61.65 3.18,56.99 4.82,51.27 6.46,45.55 6.98,39.31 7.50,33.06 7.35,27.02 7.19,20.99 6.78,16.19 6.38,11.38 6.06,8.16 5.74,4.94 5.69,3.53 5.63,2.11 6.15,2.50 6.68,2.88 6.56,4.02 6.44,5.16 5.31,7.79 4.17,10.42 2.22,13.07 0.27,15.73 -2.29,17.77 -4.86,19.81 -7.34,20.18 -9.82,20.56 -11.16,19.20 -12.49,17.84 -12.11,15.12 -11.73,12.40 -10.04,9.58 -8.34,6.75 -5.96,4.46 -3.57,2.17 -2.11,0.76 -0.65,-0.65 -0.56,-0.72 -0.47,-0.78 -0.37,-0.83 -0.27,-0.87 -0.16,-0.89 -0.05,-0.91 0.05,-0.91 0.16,-0.90 0.27,-0.87 0.37,-0.84 0.47,-0.78 0.56,-0.72 0.64,-0.64 0.72,-0.56 0.78,-0.47 0.84,-0.37 0.87,-0.27 0.90,-0.16 0.91,-0.05 0.91,0.05 0.89,0.16 0.87,0.27 0.83,0.37 0.78,0.47 0.72,0.56 0.65,0.65 0.65,0.65 L 0.65,0.65 Z"></path></g><g transform="translate(30 286) rotate(0 122.5 49.5)" stroke="none"><path fill="#1e1e1e" d="M 0.38,0.90 Q 0.38,0.90 -1.61,1.78 -3.62,2.66 -3.74,2.69 -3.85,2.73 -3.98,2.73 -4.10,2.74 -4.22,2.71 -4.34,2.69 -4.45,2.64 -4.56,2.59 -4.66,2.51 -4.76,2.43 -4.83,2.33 -4.90,2.23 -4.95,2.12 -5.00,2.01 -5.02,1.88 -5.04,1.76 -5.03,1.64 -5.02,1.52 -4.98,1.40 -4.94,1.28 -4.88,1.18 -4.81,1.08 -4.72,0.99 -4.64,0.90 -4.53,0.84 -4.42,0.78 -3.62,0.28 -2.82,-0.21 1.00,-2.19 4.83,-4.18 10.86,-5.92 16.89,-7.66 24.94,-8.98 33.00,-10.30 43.06,-10.87 53.13,-11.44 64.61,-11.39 76.09,-11.35 88.41,-11.61 100.73,-11.87 114.55,-13.14 128.38,-14.40 142.55,-16.94 156.73,-19.48 170.83,-22.00 184.93,-24.53 198.16,-25.89 211.38,-27.26 221.90,-27.83 232.42,-28.41 239.50,-28.37 246.59,-28.33 250.54,-28.01 254.49,-27.69 256.21,-26.50 257.92,-25.31 258.42,-23.42 258.91,-21.54 258.47,-18.36 258.03,-15.17 257.85,-10.82 257.68,-6.47 257.60,-0.59 257.52,5.28 258.35,12.30 259.17,19.32 260.39,27.21 261.60,35.09 262.69,44.22 263.79,53.36 264.55,62.43 265.30,71.50 265.62,79.98 265.95,88.46 265.80,95.83 265.65,103.19 265.01,108.41 264.37,113.62 262.89,116.89 261.41,120.16 259.47,121.99 257.53,123.81 254.78,124.64 252.03,125.47 248.78,125.50 245.52,125.53 241.29,125.25 237.06,124.96 230.73,124.84 224.39,124.73 215.91,124.39 207.44,124.06 197.25,123.92 187.06,123.78 175.83,123.73 164.60,123.68 152.70,124.52 140.79,125.36 128.80,126.02 116.80,126.67 104.80,127.24 92.80,127.80 81.07,128.05 69.34,128.29 59.15,128.11 48.97,127.94 40.90,127.57 32.82,127.21 25.93,126.76 19.05,126.32 13.24,125.85 7.42,125.37 2.87,124.58 -1.67,123.80 -4.82,122.87 -7.97,121.94 -10.32,120.61 -12.67,119.28 -14.09,117.70 -15.51,116.13 -16.44,113.87 -17.38,111.61 -18.32,108.37 -19.27,105.13 -19.69,99.88 -20.11,94.64 -20.56,86.71 -21.02,78.78 -21.21,69.07 -21.39,59.35 -21.19,50.31 -20.99,41.27 -20.61,33.97 -20.24,26.67 -20.08,20.15 -19.92,13.63 -19.86,8.55 -19.79,3.48 -20.04,0.25 -20.30,-2.97 -20.67,-4.54 -21.05,-6.11 -21.01,-7.67 -20.97,-9.24 -20.32,-9.76 -19.68,-10.27 -17.70,-9.81 -15.72,-9.35 -13.70,-8.87 -11.69,-8.38 -9.20,-8.18 -6.72,-7.99 -3.49,-7.31 -0.26,-6.62 3.38,-5.76 7.02,-4.90 10.92,-3.65 14.83,-2.41 19.01,-0.90 23.20,0.60 26.62,2.06 30.04,3.52 31.52,4.08 32.99,4.64 33.08,4.69 33.18,4.74 33.25,4.82 33.33,4.89 33.37,4.99 33.42,5.08 33.43,5.19 33.44,5.30 33.42,5.40 33.40,5.50 33.34,5.60 33.29,5.69 33.21,5.76 33.13,5.82 33.03,5.86 32.93,5.90 32.82,5.91 32.72,5.92 32.61,5.89 32.51,5.86 32.42,5.80 32.34,5.74 32.27,5.66 32.21,5.58 32.17,5.47 32.14,5.37 32.14,5.27 32.14,5.16 32.17,5.06 32.20,4.96 32.27,4.87 32.33,4.79 32.42,4.73 32.51,4.67 32.61,4.64 32.71,4.61 32.82,4.62 32.92,4.62 33.02,4.66 33.12,4.70 33.20,4.77 33.28,4.84 33.34,4.93 33.39,5.02 33.42,5.12 33.44,5.23 33.43,5.33 33.42,5.44 33.37,5.53 33.33,5.63 33.26,5.71 33.18,5.78 33.09,5.84 33.00,5.89 32.89,5.90 32.79,5.92 32.68,5.90 32.58,5.89 32.58,5.89 32.58,5.89 31.06,5.46 29.54,5.03 25.93,4.17 22.31,3.30 18.06,2.04 13.81,0.78 10.03,-0.42 6.25,-1.63 2.64,-2.48 -0.96,-3.34 -3.98,-3.99 -7.00,-4.64 -9.74,-4.87 -12.47,-5.11 -14.63,-5.63 -16.79,-6.16 -17.66,-6.96 -18.52,-7.77 -18.15,-7.32 -17.77,-6.88 -17.35,-5.06 -16.93,-3.24 -16.66,0.14 -16.40,3.53 -16.47,8.62 -16.54,13.71 -16.70,20.27 -16.86,26.84 -17.24,34.09 -17.61,41.34 -17.82,50.31 -18.03,59.28 -17.83,68.94 -17.64,78.59 -17.19,86.48 -16.73,94.38 -16.38,99.29 -16.02,104.21 -15.13,107.29 -14.25,110.38 -13.58,112.18 -12.92,113.98 -11.93,115.19 -10.94,116.40 -8.97,117.56 -6.99,118.73 -4.04,119.61 -1.09,120.49 3.30,121.26 7.70,122.03 13.48,122.50 19.26,122.98 26.12,123.42 32.97,123.87 41.00,124.24 49.03,124.60 59.15,124.80 69.27,124.99 80.96,124.76 92.65,124.53 104.64,123.97 116.62,123.42 128.60,122.79 140.57,122.15 152.59,121.32 164.62,120.49 175.86,120.57 187.11,120.64 197.33,120.79 207.56,120.94 216.01,121.28 224.45,121.62 230.86,121.75 237.28,121.88 241.40,122.17 245.52,122.46 248.39,122.50 251.26,122.53 253.45,122.02 255.65,121.50 257.22,120.17 258.78,118.84 260.15,116.03 261.51,113.22 262.15,108.18 262.79,103.13 262.95,95.85 263.10,88.56 262.78,80.15 262.47,71.74 261.72,62.72 260.97,53.69 259.89,44.61 258.80,35.52 257.59,27.58 256.37,19.65 255.54,12.45 254.71,5.25 254.79,-0.67 254.88,-6.60 255.09,-11.09 255.30,-15.59 255.76,-18.34 256.23,-21.10 256.15,-22.36 256.07,-23.62 255.08,-24.41 254.09,-25.21 250.33,-25.50 246.57,-25.79 239.57,-25.83 232.56,-25.87 222.10,-25.29 211.64,-24.71 198.51,-23.36 185.38,-22.01 171.28,-19.49 157.18,-16.97 142.90,-14.41 128.61,-11.85 114.70,-10.59 100.79,-9.34 88.43,-9.07 76.08,-8.80 64.67,-8.87 53.27,-8.93 43.33,-8.40 33.39,-7.87 25.47,-6.61 17.55,-5.34 11.71,-3.72 5.87,-2.09 2.06,-0.20 -1.74,1.67 -2.68,2.17 -3.62,2.66 -3.74,2.69 -3.85,2.73 -3.98,2.73 -4.10,2.74 -4.22,2.71 -4.34,2.69 -4.45,2.64 -4.56,2.59 -4.66,2.51 -4.76,2.43 -4.83,2.33 -4.90,2.23 -4.95,2.12 -5.00,2.01 -5.02,1.88 -5.04,1.76 -5.03,1.64 -5.02,1.52 -4.98,1.40 -4.94,1.28 -4.88,1.18 -4.81,1.08 -4.72,0.99 -4.64,0.90 -4.53,0.84 -4.42,0.78 -2.40,-0.06 -0.38,-0.90 -0.27,-0.93 -0.16,-0.97 -0.04,-0.97 0.07,-0.98 0.19,-0.95 0.31,-0.93 0.41,-0.88 0.52,-0.83 0.61,-0.75 0.70,-0.68 0.78,-0.58 0.85,-0.49 0.89,-0.38 0.94,-0.27 0.96,-0.15 0.98,-0.04 0.97,0.07 0.96,0.19 0.92,0.30 0.89,0.42 0.82,0.52 0.76,0.62 0.67,0.70 0.59,0.78 0.49,0.84 0.38,0.90 0.38,0.90 L 0.38,0.90 Z"></path></g><g transform="translate(972 360.5) rotate(0 110 -26.5)" stroke="none"><path fill="#1e1e1e" d="M -0.96,-0.27 Q -0.96,-0.27 -0.40,-2.30 0.16,-4.33 2.76,-7.94 5.37,-11.55 8.48,-15.07 11.59,-18.60 14.70,-21.02 17.81,-23.43 19.89,-24.49 21.97,-25.55 23.81,-24.98 25.65,-24.41 26.45,-22.27 27.26,-20.12 26.95,-16.80 26.64,-13.47 25.63,-9.48 24.61,-5.49 23.91,-1.56 23.20,2.35 22.61,5.46 22.01,8.57 21.76,9.55 21.50,10.53 22.96,10.34 24.42,10.15 26.83,7.89 29.25,5.63 32.92,1.23 36.59,-3.16 41.08,-7.68 45.58,-12.20 49.64,-14.77 53.71,-17.35 56.76,-17.17 59.81,-16.98 61.42,-14.19 63.03,-11.40 63.66,-7.82 64.29,-4.24 64.45,-2.26 64.62,-0.29 65.66,-0.22 66.70,-0.16 69.02,-2.87 71.34,-5.57 74.43,-9.61 77.53,-13.64 80.66,-16.31 83.80,-18.98 86.51,-20.16 89.21,-21.34 91.14,-20.65 93.06,-19.96 94.78,-18.11 96.50,-16.26 98.06,-14.04 99.62,-11.82 101.88,-9.86 104.15,-7.89 107.24,-7.11 110.34,-6.34 114.39,-7.12 118.45,-7.91 122.68,-10.48 126.91,-13.05 130.12,-16.11 133.33,-19.17 134.91,-21.33 136.49,-23.49 136.06,-24.80 135.64,-26.11 135.74,-26.22 135.83,-26.33 135.95,-26.41 136.07,-26.49 136.20,-26.55 136.34,-26.60 136.48,-26.62 136.62,-26.63 136.77,-26.62 136.91,-26.60 137.05,-26.55 137.18,-26.50 137.30,-26.42 137.42,-26.34 137.52,-26.23 137.61,-26.12 137.68,-25.99 137.75,-25.87 137.78,-25.73 137.82,-25.59 137.82,-25.44 137.82,-25.30 137.79,-25.16 137.75,-25.02 137.69,-24.89 137.62,-24.76 135.56,-23.31 133.51,-21.86 130.52,-18.54 127.53,-15.21 125.15,-10.45 122.78,-5.69 122.06,-1.83 121.34,2.02 122.03,3.81 122.73,5.59 125.19,5.33 127.65,5.07 130.24,2.55 132.84,0.04 134.80,-4.35 136.77,-8.74 137.90,-12.87 139.04,-17.01 138.76,-18.98 138.48,-20.95 138.24,-20.41 138.00,-19.86 138.07,-18.71 138.14,-17.55 139.37,-16.39 140.60,-15.22 143.18,-15.00 145.76,-14.78 150.16,-16.60 154.57,-18.41 159.53,-23.11 164.49,-27.81 169.19,-34.09 173.89,-40.37 177.29,-47.02 180.68,-53.66 182.41,-57.63 184.13,-61.60 184.29,-63.32 184.45,-65.04 184.54,-65.19 184.62,-65.33 184.74,-65.45 184.86,-65.57 185.01,-65.66 185.15,-65.75 185.31,-65.80 185.47,-65.86 185.64,-65.87 185.81,-65.88 185.98,-65.85 186.14,-65.82 186.30,-65.75 186.45,-65.69 186.59,-65.58 186.72,-65.48 186.83,-65.35 186.93,-65.21 187.01,-65.06 187.08,-64.91 187.11,-64.74 187.14,-64.57 187.13,-64.40 187.12,-64.24 187.07,-64.07 187.03,-63.91 185.89,-62.23 184.76,-60.55 183.53,-56.32 182.30,-52.10 180.89,-45.40 179.48,-38.70 178.89,-31.03 178.30,-23.36 179.18,-16.77 180.06,-10.18 181.88,-6.54 183.70,-2.89 187.00,-2.51 190.31,-2.13 194.12,-5.24 197.94,-8.35 201.88,-13.88 205.82,-19.42 208.67,-24.36 211.51,-29.30 213.03,-32.01 214.55,-34.71 215.18,-35.27 215.81,-35.84 215.91,-35.98 216.01,-36.11 216.15,-36.22 216.28,-36.33 216.43,-36.41 216.58,-36.48 216.75,-36.52 216.91,-36.55 217.08,-36.55 217.25,-36.54 217.42,-36.50 217.58,-36.45 217.73,-36.37 217.88,-36.29 218.00,-36.17 218.13,-36.05 218.22,-35.91 218.31,-35.77 218.37,-35.61 218.42,-35.45 218.44,-35.28 218.45,-35.11 218.43,-34.94 218.40,-34.77 218.34,-34.62 218.27,-34.46 217.76,-32.02 217.24,-29.58 216.42,-25.32 215.60,-21.06 214.97,-16.41 214.34,-11.76 214.88,-8.02 215.43,-4.28 217.14,-2.50 218.86,-0.72 220.27,0.60 221.68,1.94 221.75,2.01 221.83,2.09 221.87,2.19 221.92,2.28 221.93,2.39 221.94,2.49 221.92,2.60 221.90,2.70 221.84,2.79 221.79,2.89 221.71,2.95 221.63,3.02 221.53,3.06 221.43,3.10 221.33,3.11 221.22,3.12 221.12,3.09 221.01,3.06 220.93,3.00 220.84,2.94 220.77,2.86 220.71,2.77 220.67,2.67 220.64,2.57 220.64,2.47 220.64,2.36 220.67,2.26 220.70,2.16 220.77,2.07 220.83,1.99 220.92,1.93 221.01,1.87 221.11,1.84 221.21,1.81 221.32,1.82 221.42,1.82 221.52,1.86 221.62,1.90 221.70,1.97 221.78,2.04 221.84,2.13 221.90,2.22 221.92,2.32 221.94,2.42 221.93,2.53 221.92,2.64 221.88,2.73 221.83,2.83 221.76,2.91 221.69,2.98 221.59,3.03 221.50,3.08 221.40,3.10 221.29,3.12 221.19,3.10 221.08,3.09 220.99,3.04 220.89,2.99 220.89,2.99 220.89,2.99 219.09,1.91 217.29,0.84 215.05,-1.36 212.81,-3.56 212.18,-7.84 211.54,-12.11 212.18,-16.85 212.83,-21.59 213.66,-25.89 214.49,-30.19 215.15,-33.02 215.81,-35.84 215.91,-35.97 216.01,-36.11 216.15,-36.22 216.28,-36.33 216.43,-36.41 216.58,-36.48 216.75,-36.52 216.91,-36.55 217.08,-36.55 217.25,-36.54 217.42,-36.50 217.58,-36.45 217.73,-36.37 217.88,-36.29 218.00,-36.17 218.12,-36.05 218.22,-35.91 218.31,-35.77 218.37,-35.61 218.42,-35.45 218.44,-35.28 218.45,-35.11 218.43,-34.94 218.40,-34.77 218.34,-34.62 218.27,-34.46 217.62,-33.88 216.97,-33.30 215.46,-30.60 213.95,-27.90 211.03,-22.84 208.10,-17.78 203.89,-11.96 199.67,-6.14 195.10,-2.83 190.54,0.48 186.30,-0.24 182.06,-0.98 179.68,-5.37 177.29,-9.76 176.38,-16.66 175.48,-23.57 176.10,-31.42 176.71,-39.28 178.15,-46.10 179.59,-52.92 181.00,-57.51 182.41,-62.10 183.43,-63.57 184.45,-65.04 184.54,-65.19 184.62,-65.33 184.74,-65.45 184.86,-65.57 185.01,-65.66 185.15,-65.75 185.31,-65.80 185.47,-65.86 185.64,-65.87 185.81,-65.88 185.98,-65.85 186.14,-65.82 186.30,-65.75 186.45,-65.69 186.59,-65.58 186.72,-65.48 186.83,-65.35 186.93,-65.21 187.01,-65.06 187.08,-64.91 187.11,-64.74 187.14,-64.57 187.13,-64.40 187.12,-64.24 187.07,-64.07 187.03,-63.91 186.84,-62.22 186.65,-60.54 184.85,-56.49 183.05,-52.44 179.51,-45.63 175.97,-38.82 171.11,-32.38 166.25,-25.94 160.91,-21.01 155.56,-16.08 150.58,-14.18 145.60,-12.27 142.35,-12.78 139.10,-13.28 137.43,-15.17 135.75,-17.05 135.75,-19.02 135.75,-20.98 136.38,-22.01 137.00,-23.03 138.79,-22.52 140.58,-22.00 141.02,-19.21 141.47,-16.43 140.25,-12.07 139.03,-7.71 136.80,-2.95 134.57,1.81 131.35,4.61 128.14,7.41 125.06,7.48 121.97,7.55 120.44,4.71 118.91,1.86 119.72,-2.46 120.52,-6.79 123.09,-11.84 125.66,-16.88 128.89,-20.39 132.12,-23.90 133.88,-25.01 135.64,-26.11 135.74,-26.22 135.83,-26.33 135.95,-26.41 136.07,-26.49 136.20,-26.55 136.34,-26.60 136.48,-26.62 136.62,-26.63 136.77,-26.62 136.91,-26.60 137.05,-26.55 137.18,-26.50 137.30,-26.42 137.42,-26.34 137.52,-26.23 137.61,-26.12 137.68,-25.99 137.75,-25.87 137.78,-25.73 137.82,-25.59 137.82,-25.44 137.82,-25.30 137.79,-25.16 137.75,-25.02 137.69,-24.89 137.62,-24.76 138.06,-23.96 138.49,-23.16 136.68,-20.36 134.87,-17.56 131.46,-14.37 128.05,-11.17 123.47,-8.48 118.88,-5.79 114.38,-5.02 109.87,-4.26 106.35,-5.24 102.83,-6.23 100.35,-8.41 97.88,-10.59 96.39,-12.71 94.91,-14.84 93.53,-16.44 92.16,-18.05 90.85,-18.72 89.54,-19.39 87.36,-18.36 85.17,-17.34 82.21,-14.82 79.25,-12.31 76.11,-8.19 72.97,-4.07 70.10,-1.13 67.22,1.80 65.51,1.62 63.79,1.44 62.89,-1.20 62.00,-3.85 61.47,-7.11 60.94,-10.36 59.83,-12.82 58.72,-15.29 56.72,-15.30 54.73,-15.31 50.98,-12.92 47.23,-10.54 42.81,-6.09 38.38,-1.65 34.60,2.86 30.81,7.38 27.86,9.87 24.91,12.37 23.23,12.53 21.54,12.69 20.63,10.44 19.72,8.20 20.31,5.06 20.90,1.93 21.62,-2.06 22.34,-6.07 23.33,-9.89 24.32,-13.72 24.66,-16.62 25.01,-19.52 24.66,-21.20 24.30,-22.88 23.40,-23.19 22.50,-23.50 20.85,-22.57 19.19,-21.64 16.22,-19.38 13.25,-17.11 10.18,-13.69 7.10,-10.27 4.61,-6.99 2.13,-3.71 1.55,-1.72 0.96,0.27 0.91,0.38 0.87,0.49 0.79,0.59 0.72,0.69 0.63,0.77 0.54,0.84 0.43,0.89 0.32,0.95 0.20,0.97 0.08,1.00 -0.03,0.99 -0.15,0.99 -0.27,0.95 -0.39,0.92 -0.49,0.86 -0.60,0.80 -0.68,0.72 -0.77,0.63 -0.84,0.53 -0.90,0.43 -0.94,0.31 -0.98,0.20 -0.99,0.08 -1.00,-0.03 -0.98,-0.15 -0.96,-0.27 -0.96,-0.27 L -0.96,-0.27 Z"></path></g><g transform="translate(1134 312.5) rotate(0 18 0.5)" stroke="none"><path fill="#1e1e1e" d="M 0.10,-1.12 Q 0.10,-1.12 3.26,-0.85 6.43,-0.59 12.33,-0.44 18.23,-0.30 23.34,-0.07 28.44,0.14 30.62,0.22 32.79,0.31 32.89,0.32 33.00,0.34 33.09,0.39 33.18,0.44 33.26,0.52 33.33,0.60 33.37,0.70 33.42,0.79 33.43,0.90 33.44,1.00 33.41,1.11 33.39,1.21 33.33,1.30 33.28,1.39 33.20,1.46 33.12,1.53 33.02,1.57 32.92,1.61 32.81,1.61 32.70,1.61 32.60,1.58 32.50,1.56 32.41,1.49 32.33,1.43 32.26,1.35 32.20,1.26 32.17,1.16 32.13,1.06 32.13,0.96 32.14,0.85 32.17,0.75 32.21,0.65 32.27,0.56 32.34,0.48 32.42,0.42 32.51,0.36 32.62,0.34 32.72,0.31 32.82,0.32 32.93,0.32 33.03,0.36 33.13,0.40 33.21,0.47 33.29,0.54 33.34,0.63 33.39,0.73 33.42,0.83 33.44,0.93 33.43,1.04 33.41,1.14 33.37,1.24 33.32,1.34 33.25,1.41 33.17,1.49 33.08,1.54 32.99,1.59 32.88,1.60 32.78,1.62 32.78,1.62 32.78,1.62 30.60,1.66 28.43,1.69 23.31,1.82 18.19,1.94 12.20,1.84 6.21,1.74 3.05,1.43 -0.10,1.12 -0.23,1.09 -0.36,1.06 -0.48,1.00 -0.61,0.94 -0.71,0.85 -0.81,0.77 -0.89,0.66 -0.98,0.55 -1.03,0.42 -1.08,0.30 -1.10,0.16 -1.12,0.03 -1.11,-0.10 -1.10,-0.23 -1.05,-0.36 -1.01,-0.49 -0.93,-0.60 -0.86,-0.72 -0.76,-0.81 -0.66,-0.90 -0.54,-0.97 -0.43,-1.03 -0.29,-1.07 -0.16,-1.11 -0.03,-1.11 0.10,-1.12 0.10,-1.12 L 0.10,-1.12 Z"></path></g><g transform="translate(1196 308.5) rotate(0 -5 -1)" stroke="none"><path fill="#1e1e1e" d="M -0.15,1.07 Q -0.15,1.07 -2.17,0.85 -4.19,0.64 -4.86,0.52 -5.53,0.39 -5.61,0.37 -5.69,0.35 -5.75,0.31 -5.82,0.28 -5.88,0.22 -5.94,0.17 -5.98,0.10 -6.03,0.04 -6.05,-0.03 -6.08,-0.10 -6.09,-0.18 -6.10,-0.26 -6.08,-0.34 -6.07,-0.42 -6.04,-0.49 -6.01,-0.56 -5.97,-0.63 -5.92,-0.69 -5.86,-0.74 -5.80,-0.80 -5.73,-0.83 -5.66,-0.87 -5.58,-0.88 -5.50,-0.90 -5.43,-0.90 -5.35,-0.90 -5.15,-0.79 -4.95,-0.68 -4.89,-0.60 -4.84,-0.51 -4.81,-0.40 -4.78,-0.30 -4.79,-0.19 -4.80,-0.09 -4.84,0.00 -4.89,0.10 -4.96,0.18 -5.03,0.26 -5.12,0.31 -5.21,0.36 -5.32,0.38 -5.42,0.40 -5.53,0.39 -5.63,0.37 -5.73,0.32 -5.82,0.28 -5.90,0.20 -5.97,0.13 -6.02,0.03 -6.07,-0.05 -6.08,-0.16 -6.10,-0.27 -6.08,-0.37 -6.06,-0.47 -6.00,-0.57 -5.95,-0.66 -5.87,-0.73 -5.79,-0.80 -5.69,-0.84 -5.60,-0.88 -5.49,-0.89 -5.39,-0.90 -5.28,-0.88 -5.18,-0.85 -5.09,-0.79 -5.00,-0.74 -4.93,-0.65 -4.87,-0.57 -4.83,-0.47 -4.79,-0.37 -4.79,-0.26 -4.79,-0.16 -4.82,-0.06 -4.85,0.04 -4.91,0.12 -4.98,0.21 -5.06,0.27 -5.15,0.33 -5.25,0.36 -5.35,0.39 -5.46,0.39 -5.56,0.39 -5.66,0.35 -5.76,0.31 -5.65,0.35 -5.53,0.39 -5.61,0.37 -5.69,0.35 -5.75,0.31 -5.82,0.28 -5.88,0.22 -5.94,0.17 -5.98,0.10 -6.03,0.04 -6.05,-0.03 -6.08,-0.10 -6.09,-0.18 -6.10,-0.26 -6.08,-0.34 -6.07,-0.42 -6.04,-0.49 -6.01,-0.56 -5.97,-0.63 -5.92,-0.69 -5.86,-0.74 -5.80,-0.80 -5.73,-0.83 -5.66,-0.87 -5.58,-0.88 -5.50,-0.90 -5.43,-0.90 -5.35,-0.90 -4.60,-1.34 -3.85,-1.79 -1.84,-1.43 0.15,-1.07 0.27,-1.03 0.40,-1.00 0.51,-0.94 0.63,-0.87 0.73,-0.78 0.82,-0.70 0.89,-0.59 0.96,-0.48 1.01,-0.36 1.05,-0.23 1.07,-0.10 1.08,0.02 1.06,0.15 1.04,0.28 0.99,0.40 0.94,0.52 0.87,0.62 0.79,0.73 0.69,0.82 0.59,0.90 0.47,0.96 0.36,1.02 0.23,1.04 0.10,1.07 -0.02,1.07 -0.15,1.07 -0.15,1.07 L -0.15,1.07 Z"></path></g><g transform="translate(1231 323.5) rotate(0 38 13)" stroke="none"><path fill="#1e1e1e" d="M 0.56,0.93 Q 0.56,0.93 -0.84,1.84 -2.25,2.74 -4.76,4.85 -7.26,6.95 -9.08,9.71 -10.89,12.48 -11.64,15.20 -12.38,17.92 -11.61,20.82 -10.85,23.72 -8.72,25.65 -6.60,27.59 -3.68,28.12 -0.76,28.65 1.95,27.32 4.67,25.99 6.31,22.77 7.95,19.54 8.11,15.75 8.27,11.95 7.56,9.34 6.85,6.73 5.74,5.57 4.62,4.41 3.38,5.17 2.13,5.93 1.42,7.69 0.71,9.45 0.93,11.44 1.14,13.43 1.93,14.96 2.71,16.49 4.85,17.31 6.99,18.13 10.09,18.54 13.20,18.94 16.32,17.74 19.45,16.53 22.78,14.34 26.11,12.16 29.80,8.95 33.50,5.75 37.43,2.63 41.35,-0.49 44.58,-2.45 47.81,-4.42 50.44,-4.14 53.07,-3.87 54.11,-1.36 55.14,1.14 54.94,5.54 54.74,9.94 54.36,14.31 53.97,18.69 53.67,21.10 53.38,23.51 55.13,21.51 56.88,19.52 60.37,15.91 63.86,12.30 67.79,9.80 71.72,7.31 75.36,6.79 79.00,6.27 82.15,7.62 85.30,8.97 87.79,11.29 90.28,13.60 90.35,13.68 90.42,13.76 90.46,13.85 90.51,13.95 90.52,14.06 90.53,14.16 90.50,14.27 90.48,14.37 90.42,14.46 90.37,14.55 90.29,14.62 90.20,14.69 90.10,14.72 90.01,14.76 89.90,14.77 89.79,14.77 89.69,14.74 89.59,14.71 89.50,14.65 89.41,14.59 89.35,14.50 89.29,14.42 89.26,14.32 89.22,14.22 89.22,14.11 89.23,14.00 89.26,13.90 89.30,13.80 89.36,13.72 89.43,13.64 89.52,13.58 89.60,13.52 89.71,13.49 89.81,13.47 89.92,13.47 90.02,13.48 90.12,13.52 90.22,13.56 90.30,13.63 90.38,13.70 90.43,13.79 90.49,13.88 90.51,13.99 90.53,14.09 90.52,14.20 90.50,14.30 90.46,14.40 90.41,14.49 90.34,14.57 90.26,14.65 90.17,14.70 90.07,14.74 89.97,14.76 89.86,14.78 89.76,14.76 89.65,14.74 89.56,14.69 89.47,14.64 89.47,14.64 89.47,14.64 86.86,12.98 84.25,11.32 81.70,10.17 79.15,9.02 76.14,9.38 73.12,9.74 69.50,12.01 65.89,14.28 62.45,17.84 59.01,21.40 56.86,23.74 54.71,26.09 52.90,25.28 51.10,24.46 51.13,21.45 51.16,18.44 51.55,14.11 51.94,9.78 52.20,5.88 52.47,1.98 51.90,-0.15 51.33,-2.29 50.18,-2.13 49.02,-1.97 46.06,-0.14 43.09,1.69 39.21,4.78 35.33,7.87 31.48,11.18 27.63,14.50 24.02,16.82 20.42,19.14 16.69,20.42 12.97,21.70 9.43,21.19 5.88,20.69 3.20,19.37 0.52,18.04 -0.54,15.88 -1.62,13.71 -1.73,11.08 -1.84,8.44 -0.60,6.07 0.62,3.71 2.60,2.88 4.58,2.05 6.99,3.91 9.39,5.77 10.21,8.92 11.03,12.07 10.72,16.41 10.41,20.76 8.24,24.51 6.08,28.26 2.54,29.81 -0.98,31.36 -4.66,30.55 -8.34,29.75 -10.91,27.18 -13.49,24.61 -14.31,20.97 -15.12,17.33 -14.19,14.13 -13.25,10.93 -11.11,7.90 -8.97,4.86 -6.23,2.78 -3.49,0.70 -2.02,-0.11 -0.56,-0.93 -0.44,-0.99 -0.32,-1.04 -0.19,-1.06 -0.06,-1.09 0.06,-1.08 0.20,-1.07 0.32,-1.03 0.45,-0.99 0.56,-0.92 0.67,-0.85 0.77,-0.76 0.86,-0.67 0.93,-0.55 0.99,-0.44 1.03,-0.31 1.07,-0.19 1.08,-0.06 1.09,0.06 1.06,0.19 1.04,0.32 0.98,0.44 0.93,0.56 0.85,0.67 0.77,0.77 0.66,0.85 0.56,0.93 0.56,0.93 L 0.56,0.93 Z"></path></g><g transform="translate(1363 289) rotate(0 -204.5 66)" stroke="none"><path fill="#1e1e1e" d="M -0.31,0.93 Q -0.31,0.93 -2.04,0.38 -3.77,-0.16 -6.57,-1.22 -9.37,-2.29 -14.05,-4.43 -18.73,-6.58 -24.74,-9.48 -30.76,-12.39 -38.45,-15.61 -46.15,-18.83 -55.12,-21.62 -64.09,-24.40 -74.18,-26.43 -84.27,-28.46 -95.17,-30.19 -106.08,-31.91 -118.77,-33.79 -131.45,-35.67 -145.77,-37.91 -160.08,-40.14 -175.08,-42.52 -190.08,-44.90 -205.02,-46.18 -219.96,-47.46 -233.96,-46.28 -247.96,-45.11 -261.65,-42.60 -275.34,-40.09 -288.62,-36.73 -301.89,-33.37 -314.73,-29.93 -327.57,-26.49 -339.58,-22.17 -351.58,-17.85 -362.64,-12.03 -373.70,-6.20 -382.90,1.64 -392.10,9.49 -399.69,19.09 -407.29,28.68 -412.78,39.28 -418.27,49.89 -421.44,60.63 -424.62,71.37 -425.67,81.59 -426.73,91.81 -425.19,102.06 -423.64,112.30 -419.87,122.32 -416.09,132.34 -410.24,141.10 -404.39,149.86 -397.12,156.37 -389.85,162.88 -380.86,167.02 -371.88,171.17 -361.49,174.09 -351.10,177.01 -339.00,178.24 -326.91,179.47 -313.17,179.43 -299.43,179.39 -284.98,178.51 -270.53,177.64 -255.50,175.83 -240.48,174.02 -226.05,171.82 -211.62,169.62 -197.45,166.96 -183.28,164.31 -169.23,161.17 -155.17,158.03 -141.72,154.97 -128.26,151.91 -114.53,148.03 -100.80,144.16 -87.53,139.36 -74.26,134.57 -62.09,127.97 -49.93,121.38 -38.47,113.14 -27.02,104.91 -16.76,94.58 -6.49,84.25 0.66,72.77 7.83,61.30 11.41,50.23 14.99,39.15 15.07,29.45 15.15,19.75 11.83,11.82 8.50,3.88 3.45,-1.63 -1.59,-7.16 -3.81,-9.61 -6.03,-12.06 -6.09,-12.15 -6.15,-12.24 -6.18,-12.34 -6.21,-12.44 -6.21,-12.55 -6.20,-12.65 -6.17,-12.75 -6.13,-12.85 -6.06,-12.93 -6.00,-13.02 -5.91,-13.07 -5.82,-13.13 -5.71,-13.16 -5.61,-13.18 -5.50,-13.17 -5.40,-13.16 -5.30,-13.12 -5.20,-13.08 -5.12,-13.01 -5.05,-12.93 -4.99,-12.84 -4.94,-12.75 -4.92,-12.64 -4.90,-12.54 -4.92,-12.43 -4.93,-12.33 -4.98,-12.23 -5.03,-12.14 -5.10,-12.06 -5.18,-11.99 -5.27,-11.94 -5.37,-11.90 -5.47,-11.88 -5.58,-11.87 -5.68,-11.89 -5.79,-11.91 -5.88,-11.96 -5.97,-12.02 -6.04,-12.10 -6.11,-12.17 -6.16,-12.27 -6.20,-12.37 -6.21,-12.48 -6.21,-12.58 -6.19,-12.69 -6.16,-12.79 -6.10,-12.88 -6.05,-12.97 -5.96,-13.03 -5.88,-13.10 -5.78,-13.13 -5.68,-13.17 -5.57,-13.17 -5.47,-13.18 -5.37,-13.14 -5.26,-13.11 -5.18,-13.05 -5.09,-12.99 -5.09,-12.99 -5.09,-12.99 -2.66,-10.74 -0.23,-8.50 5.65,-2.98 11.54,2.53 15.01,11.11 18.48,19.69 18.31,29.91 18.15,40.14 14.40,51.59 10.64,63.03 3.24,74.79 -4.15,86.55 -14.62,97.07 -25.10,107.58 -36.73,115.92 -48.36,124.26 -60.75,130.96 -73.13,137.66 -86.52,142.50 -99.90,147.33 -113.71,151.23 -127.53,155.13 -140.99,158.19 -154.45,161.25 -168.56,164.41 -182.67,167.56 -196.89,170.23 -211.12,172.90 -225.60,175.11 -240.08,177.32 -255.21,179.14 -270.33,180.95 -284.88,181.84 -299.43,182.72 -313.34,182.75 -327.25,182.79 -339.62,181.50 -351.99,180.21 -362.63,177.20 -373.28,174.19 -382.66,169.79 -392.05,165.39 -399.60,158.56 -407.15,151.72 -413.17,142.62 -419.20,133.52 -423.07,123.16 -426.93,112.80 -428.49,102.15 -430.05,91.49 -428.93,80.96 -427.82,70.43 -424.53,59.39 -421.23,48.36 -415.57,37.49 -409.90,26.62 -402.08,16.79 -394.26,6.97 -384.76,-1.08 -375.27,-9.14 -363.99,-15.05 -352.71,-20.97 -340.57,-25.32 -328.42,-29.68 -315.56,-33.12 -302.70,-36.57 -289.32,-39.95 -275.93,-43.32 -262.08,-45.83 -248.23,-48.35 -233.96,-49.51 -219.69,-50.67 -204.64,-49.35 -189.58,-48.03 -174.59,-45.62 -159.60,-43.22 -145.30,-40.98 -131.00,-38.73 -118.30,-36.83 -105.59,-34.93 -94.63,-33.18 -83.67,-31.43 -73.44,-29.33 -63.20,-27.24 -54.11,-24.37 -45.02,-21.50 -37.27,-18.20 -29.53,-14.90 -23.57,-11.91 -17.61,-8.92 -13.06,-6.68 -8.50,-4.43 -5.81,-3.28 -3.12,-2.13 -1.40,-1.53 0.31,-0.93 0.41,-0.87 0.52,-0.82 0.61,-0.75 0.70,-0.67 0.77,-0.58 0.84,-0.49 0.89,-0.38 0.94,-0.27 0.96,-0.15 0.98,-0.03 0.97,0.07 0.96,0.19 0.92,0.30 0.88,0.42 0.82,0.52 0.76,0.62 0.67,0.70 0.58,0.78 0.48,0.84 0.38,0.90 0.27,0.93 0.15,0.96 0.03,0.97 -0.07,0.97 -0.19,0.95 -0.31,0.93 -0.31,0.93 L -0.31,0.93 Z"></path></g><g transform="translate(324 101) rotate(0 215.5 -39)" stroke="none"><path fill="#1e1e1e" d="M -0.79,-0.59 Q -0.79,-0.59 0.03,-1.76 0.87,-2.94 3.49,-6.61 6.12,-10.28 9.83,-15.03 13.54,-19.78 16.85,-23.81 20.16,-27.84 22.53,-29.93 24.90,-32.01 27.04,-32.04 29.18,-32.07 29.79,-30.37 30.41,-28.68 29.79,-25.41 29.18,-22.14 28.33,-18.28 27.49,-14.42 27.14,-11.13 26.79,-7.84 26.80,-6.15 26.81,-4.46 28.61,-5.87 30.41,-7.28 32.82,-11.08 35.23,-14.89 38.32,-19.17 41.42,-23.46 44.51,-26.77 47.60,-30.08 50.41,-31.58 53.23,-33.08 55.56,-32.15 57.88,-31.22 59.21,-28.31 60.54,-25.40 61.03,-22.11 61.53,-18.83 61.52,-17.38 61.51,-15.93 63.21,-16.54 64.90,-17.15 67.14,-20.12 69.39,-23.10 72.46,-27.01 75.53,-30.93 78.03,-33.51 80.52,-36.09 82.70,-37.28 84.87,-38.47 86.63,-38.07 88.39,-37.66 89.23,-36.75 90.06,-35.83 90.67,-34.53 91.28,-33.24 91.96,-32.31 92.65,-31.38 93.89,-31.10 95.13,-30.81 97.37,-30.64 99.60,-30.47 102.24,-30.67 104.87,-30.87 107.05,-31.51 109.23,-32.14 110.58,-33.17 111.93,-34.19 112.40,-35.50 112.88,-36.80 112.62,-37.79 112.35,-38.77 111.06,-38.76 109.76,-38.75 107.93,-36.61 106.11,-34.48 104.15,-30.50 102.19,-26.52 101.07,-22.59 99.95,-18.65 100.02,-15.75 100.10,-12.84 101.16,-11.35 102.22,-9.85 104.21,-10.27 106.20,-10.68 108.63,-13.26 111.07,-15.84 113.56,-20.32 116.05,-24.80 117.39,-29.22 118.73,-33.64 119.24,-35.32 119.75,-37.00 118.75,-35.78 117.76,-34.56 117.04,-32.87 116.32,-31.18 115.98,-29.86 115.64,-28.53 116.53,-27.62 117.42,-26.71 119.32,-26.06 121.21,-25.40 123.88,-25.66 126.56,-25.92 129.64,-27.12 132.72,-28.32 135.69,-30.50 138.66,-32.68 141.41,-34.78 144.16,-36.87 146.46,-38.39 148.76,-39.91 150.68,-39.27 152.60,-38.64 153.44,-36.44 154.29,-34.24 154.57,-30.40 154.86,-26.56 155.25,-22.71 155.65,-18.86 156.63,-16.24 157.61,-13.61 158.81,-12.42 160.02,-11.22 162.03,-11.79 164.05,-12.36 166.24,-15.00 168.42,-17.65 170.52,-22.15 172.63,-26.66 174.11,-31.15 175.58,-35.64 175.91,-38.59 176.24,-41.54 176.48,-42.51 176.72,-43.48 175.82,-43.31 174.93,-43.14 174.21,-42.10 173.49,-41.06 173.13,-39.78 172.78,-38.49 173.96,-36.98 175.14,-35.47 177.51,-33.98 179.89,-32.49 183.65,-31.57 187.42,-30.66 191.76,-31.11 196.11,-31.56 200.12,-33.69 204.14,-35.82 206.63,-38.63 209.12,-41.44 210.14,-44.12 211.16,-46.80 210.42,-48.70 209.69,-50.61 207.63,-50.87 205.57,-51.14 203.47,-49.70 201.37,-48.26 199.95,-45.25 198.53,-42.23 197.90,-38.45 197.26,-34.67 198.11,-30.63 198.96,-26.60 201.22,-23.29 203.48,-19.98 206.55,-18.38 209.62,-16.78 212.68,-16.91 215.74,-17.05 218.61,-19.56 221.48,-22.07 224.16,-25.94 226.84,-29.81 229.19,-32.96 231.53,-36.11 233.27,-37.88 235.01,-39.65 236.05,-39.23 237.10,-38.80 237.50,-36.21 237.91,-33.62 237.43,-29.60 236.95,-25.58 236.17,-21.59 235.39,-17.59 235.29,-15.32 235.18,-13.04 237.15,-14.26 239.12,-15.49 241.92,-19.25 244.71,-23.01 248.25,-27.55 251.79,-32.08 255.67,-35.53 259.56,-38.97 262.58,-40.01 265.61,-41.05 266.93,-39.18 268.24,-37.32 268.85,-33.73 269.46,-30.15 269.39,-26.89 269.33,-23.63 269.29,-22.14 269.24,-20.64 269.89,-20.56 270.53,-20.48 272.64,-22.04 274.74,-23.60 277.75,-25.98 280.77,-28.37 283.84,-29.47 286.91,-30.56 289.02,-29.46 291.14,-28.36 292.37,-25.40 293.60,-22.45 294.61,-19.57 295.62,-16.68 296.92,-15.15 298.22,-13.61 300.52,-13.81 302.82,-14.01 305.97,-16.81 309.11,-19.61 313.08,-24.79 317.04,-29.96 320.44,-35.59 323.85,-41.22 325.26,-45.42 326.67,-49.63 325.76,-51.90 324.84,-54.16 322.80,-54.57 320.76,-54.98 318.05,-52.73 315.33,-50.48 313.34,-46.52 311.35,-42.56 310.79,-38.14 310.22,-33.71 311.36,-29.12 312.50,-24.53 315.42,-21.30 318.34,-18.08 322.48,-16.75 326.63,-15.42 331.34,-17.08 336.05,-18.73 340.56,-23.32 345.08,-27.91 349.33,-33.59 353.59,-39.27 356.61,-42.62 359.63,-45.98 361.19,-47.09 362.74,-48.20 362.86,-48.31 362.97,-48.41 363.11,-48.48 363.25,-48.55 363.40,-48.59 363.55,-48.62 363.71,-48.62 363.86,-48.62 364.01,-48.58 364.16,-48.54 364.30,-48.47 364.44,-48.39 364.55,-48.29 364.67,-48.19 364.75,-48.06 364.84,-47.93 364.89,-47.78 364.95,-47.64 364.96,-47.49 364.98,-47.33 364.96,-47.18 364.94,-47.02 364.89,-46.88 364.83,-46.73 364.74,-46.61 364.65,-46.48 365.69,-45.65 366.72,-44.82 366.63,-40.41 366.54,-36.01 366.47,-31.12 366.40,-26.23 366.62,-22.83 366.85,-19.44 367.28,-18.35 367.72,-17.26 369.84,-18.65 371.97,-20.04 374.78,-23.65 377.60,-27.25 380.32,-30.31 383.05,-33.37 385.70,-34.64 388.36,-35.92 389.16,-34.97 389.96,-34.03 390.40,-31.37 390.84,-28.70 391.51,-26.08 392.18,-23.46 393.41,-22.07 394.63,-20.68 397.32,-21.72 400.02,-22.77 403.94,-27.05 407.86,-31.34 412.71,-39.16 417.57,-46.98 421.36,-54.61 425.16,-62.23 426.75,-66.95 428.35,-71.66 428.44,-71.80 428.54,-71.94 428.66,-72.06 428.78,-72.17 428.93,-72.25 429.07,-72.33 429.24,-72.37 429.40,-72.42 429.56,-72.42 429.73,-72.43 429.89,-72.39 430.06,-72.35 430.21,-72.28 430.36,-72.20 430.49,-72.10 430.61,-71.99 430.71,-71.85 430.81,-71.72 430.87,-71.56 430.93,-71.41 430.96,-71.24 430.98,-71.07 430.97,-70.91 430.95,-70.74 430.89,-70.58 430.84,-70.43 430.41,-69.31 429.98,-68.20 427.52,-60.55 425.06,-52.91 423.45,-43.99 421.84,-35.06 421.66,-27.04 421.48,-19.02 421.73,-14.46 421.99,-9.90 422.15,-7.93 422.32,-5.97 422.31,-5.86 422.31,-5.75 422.27,-5.66 422.23,-5.56 422.16,-5.47 422.09,-5.39 422.00,-5.34 421.91,-5.28 421.81,-5.26 421.70,-5.24 421.60,-5.25 421.49,-5.26 421.40,-5.30 421.30,-5.35 421.22,-5.42 421.14,-5.49 421.09,-5.59 421.04,-5.68 421.03,-5.78 421.01,-5.89 421.03,-5.99 421.04,-6.10 421.09,-6.19 421.14,-6.29 421.22,-6.36 421.29,-6.43 421.39,-6.48 421.49,-6.52 421.59,-6.54 421.70,-6.55 421.80,-6.53 421.91,-6.50 422.00,-6.45 422.09,-6.39 422.16,-6.31 422.23,-6.23 422.27,-6.13 422.31,-6.04 422.31,-5.93 422.32,-5.82 422.29,-5.72 422.26,-5.62 422.20,-5.53 422.14,-5.44 422.06,-5.38 421.98,-5.31 421.88,-5.28 421.78,-5.24 421.67,-5.24 421.56,-5.24 421.46,-5.28 421.36,-5.31 421.28,-5.37 421.19,-5.44 421.13,-5.53 421.07,-5.61 421.04,-5.72 421.01,-5.82 421.01,-5.82 421.01,-5.82 420.73,-7.77 420.45,-9.72 419.66,-14.39 418.87,-19.05 418.93,-27.31 418.98,-35.58 420.65,-44.69 422.31,-53.80 424.84,-61.51 427.36,-69.23 427.86,-70.45 428.35,-71.66 428.44,-71.80 428.54,-71.94 428.66,-72.06 428.78,-72.17 428.93,-72.25 429.07,-72.33 429.24,-72.37 429.40,-72.42 429.56,-72.42 429.73,-72.43 429.89,-72.39 430.06,-72.35 430.21,-72.28 430.36,-72.20 430.49,-72.10 430.61,-71.99 430.71,-71.85 430.81,-71.72 430.87,-71.56 430.93,-71.41 430.96,-71.24 430.98,-71.07 430.97,-70.91 430.95,-70.74 430.89,-70.58 430.84,-70.43 429.19,-65.74 427.54,-61.05 423.68,-53.31 419.83,-45.57 414.82,-37.54 409.81,-29.52 405.40,-24.91 400.99,-20.31 397.60,-19.38 394.22,-18.45 391.97,-20.54 389.72,-22.63 388.97,-25.50 388.23,-28.36 388.05,-30.47 387.87,-32.59 387.21,-33.43 386.54,-34.27 385.75,-32.96 384.95,-31.66 382.28,-28.66 379.61,-25.66 376.47,-21.77 373.34,-17.88 370.95,-16.52 368.55,-15.15 366.47,-17.06 364.38,-18.97 364.10,-22.62 363.81,-26.27 363.89,-31.19 363.96,-36.11 364.21,-39.92 364.46,-43.72 363.60,-45.96 362.74,-48.20 362.86,-48.31 362.97,-48.41 363.11,-48.48 363.25,-48.55 363.40,-48.59 363.55,-48.62 363.71,-48.62 363.86,-48.62 364.01,-48.58 364.16,-48.54 364.30,-48.47 364.44,-48.39 364.55,-48.29 364.67,-48.19 364.75,-48.06 364.84,-47.93 364.89,-47.78 364.95,-47.64 364.96,-47.49 364.98,-47.33 364.96,-47.18 364.94,-47.02 364.89,-46.88 364.83,-46.73 364.74,-46.61 364.65,-46.48 363.09,-45.36 361.54,-44.24 358.59,-40.98 355.65,-37.72 351.27,-31.90 346.90,-26.09 341.94,-21.21 336.97,-16.33 331.55,-14.64 326.13,-12.96 321.34,-14.61 316.54,-16.25 313.29,-20.02 310.03,-23.79 308.84,-28.89 307.64,-34.00 308.34,-38.86 309.04,-43.71 311.38,-48.07 313.72,-52.42 317.15,-54.84 320.57,-57.26 323.49,-56.49 326.41,-55.71 327.70,-52.49 328.99,-49.26 327.47,-44.61 325.95,-39.96 322.46,-34.21 318.98,-28.47 314.84,-23.11 310.70,-17.75 306.97,-14.72 303.23,-11.69 300.17,-11.70 297.10,-11.70 295.24,-13.77 293.38,-15.83 292.37,-18.72 291.36,-21.60 290.54,-24.09 289.72,-26.59 288.36,-27.49 287.01,-28.39 284.62,-27.44 282.22,-26.48 279.15,-24.04 276.08,-21.59 273.33,-19.91 270.58,-18.22 269.28,-18.61 267.98,-19.01 267.42,-21.34 266.86,-23.68 266.93,-26.73 267.00,-29.77 266.57,-32.90 266.15,-36.03 265.03,-37.80 263.91,-39.57 262.55,-38.33 261.20,-37.09 257.48,-33.81 253.76,-30.54 250.23,-26.03 246.71,-21.52 243.71,-17.53 240.71,-13.55 238.50,-11.87 236.30,-10.20 234.62,-11.33 232.93,-12.47 232.92,-15.27 232.90,-18.08 233.68,-21.98 234.45,-25.89 234.92,-29.64 235.40,-33.39 235.30,-35.47 235.20,-37.55 234.38,-36.08 233.55,-34.61 231.23,-31.49 228.91,-28.37 226.01,-24.26 223.11,-20.14 219.62,-17.39 216.14,-14.64 212.36,-14.58 208.59,-14.51 205.03,-16.49 201.48,-18.48 198.99,-22.25 196.49,-26.02 195.63,-30.53 194.76,-35.04 195.51,-39.19 196.26,-43.33 198.08,-46.80 199.91,-50.26 202.74,-51.89 205.57,-53.51 208.35,-52.88 211.13,-52.24 212.31,-49.31 213.48,-46.39 212.24,-43.11 210.99,-39.83 208.16,-36.75 205.32,-33.66 200.87,-31.39 196.41,-29.12 191.64,-28.69 186.87,-28.26 182.72,-29.33 178.58,-30.39 175.86,-32.21 173.14,-34.02 171.82,-36.23 170.49,-38.44 171.00,-40.50 171.51,-42.56 172.83,-43.97 174.15,-45.39 175.34,-45.58 176.53,-45.78 177.62,-43.55 178.70,-41.32 178.33,-38.09 177.95,-34.87 176.41,-30.23 174.88,-25.60 172.59,-20.82 170.30,-16.03 167.57,-13.06 164.84,-10.08 162.06,-9.61 159.28,-9.14 157.31,-10.89 155.33,-12.64 154.25,-15.61 153.17,-18.58 152.76,-22.48 152.36,-26.38 152.13,-29.94 151.89,-33.51 151.51,-35.21 151.14,-36.91 150.17,-37.32 149.21,-37.73 147.44,-36.31 145.68,-34.88 142.91,-32.76 140.14,-30.65 136.89,-28.32 133.64,-25.99 130.21,-24.70 126.78,-23.41 123.60,-23.22 120.41,-23.03 118.00,-24.03 115.59,-25.03 114.46,-26.66 113.33,-28.29 113.66,-30.24 113.99,-32.18 114.85,-34.13 115.71,-36.07 117.02,-37.68 118.34,-39.28 119.84,-38.85 121.34,-38.43 121.25,-35.67 121.15,-32.91 119.71,-28.23 118.27,-23.56 115.57,-18.82 112.87,-14.08 109.86,-11.20 106.84,-8.32 104.13,-8.06 101.42,-7.81 99.53,-10.15 97.65,-12.49 97.57,-15.91 97.49,-19.32 98.70,-23.49 99.90,-27.66 102.08,-31.93 104.25,-36.20 106.73,-38.59 109.21,-40.99 111.28,-40.80 113.36,-40.62 114.25,-38.48 115.15,-36.35 114.31,-34.38 113.46,-32.42 111.70,-31.15 109.93,-29.89 107.49,-29.20 105.06,-28.51 102.23,-28.30 99.41,-28.10 96.93,-28.31 94.45,-28.53 92.71,-29.16 90.97,-29.79 90.04,-31.02 89.12,-32.24 88.65,-33.31 88.19,-34.37 87.84,-34.95 87.50,-35.53 86.49,-35.93 85.49,-36.34 83.85,-35.38 82.21,-34.42 79.81,-31.94 77.40,-29.46 74.34,-25.54 71.28,-21.61 68.58,-18.30 65.87,-14.99 64.03,-14.35 62.19,-13.71 60.64,-16.08 59.09,-18.45 58.65,-21.46 58.22,-24.46 57.35,-26.88 56.49,-29.29 55.02,-30.06 53.55,-30.83 51.49,-29.58 49.43,-28.32 46.45,-25.14 43.48,-21.96 40.42,-17.74 37.37,-13.52 34.77,-9.50 32.18,-5.47 30.16,-3.67 28.14,-1.87 26.46,-2.66 24.78,-3.45 24.52,-5.78 24.26,-8.10 24.63,-11.53 25.00,-14.97 25.85,-18.82 26.69,-22.67 27.35,-25.37 28.01,-28.07 27.56,-29.59 27.11,-31.11 26.75,-30.60 26.39,-30.08 24.22,-28.18 22.06,-26.27 18.75,-22.27 15.45,-18.27 11.72,-13.60 7.98,-8.92 5.28,-5.29 2.57,-1.65 1.68,-0.53 0.79,0.59 0.71,0.68 0.63,0.77 0.53,0.83 0.42,0.90 0.31,0.93 0.20,0.97 0.08,0.98 -0.03,0.99 -0.15,0.97 -0.27,0.95 -0.38,0.91 -0.49,0.86 -0.59,0.79 -0.69,0.72 -0.76,0.62 -0.84,0.53 -0.89,0.42 -0.94,0.31 -0.97,0.19 -0.99,0.08 -0.99,-0.03 -0.98,-0.15 -0.95,-0.27 -0.91,-0.39 -0.85,-0.49 -0.79,-0.59 -0.79,-0.59 L -0.79,-0.59 Z"></path></g><g transform="translate(735 53) rotate(0 25.5 3)" stroke="none"><path fill="#1e1e1e" d="M -0.63,1.27 Q -0.63,1.27 -1.80,0.73 -2.96,0.18 -3.11,0.08 -3.26,-0.01 -3.39,-0.14 -3.51,-0.27 -3.60,-0.43 -3.68,-0.59 -3.73,-0.76 -3.78,-0.94 -3.78,-1.12 -3.78,-1.30 -3.74,-1.47 -3.70,-1.65 -3.62,-1.81 -3.54,-1.97 -3.43,-2.11 -3.31,-2.24 -3.16,-2.35 -3.02,-2.46 -2.85,-2.52 -2.68,-2.59 -2.50,-2.62 -2.32,-2.64 -2.14,-2.62 -1.97,-2.60 -1.80,-2.54 -1.63,-2.48 3.20,-1.35 8.03,-0.21 15.60,1.71 23.17,3.65 32.27,4.82 41.38,5.99 45.31,6.41 49.24,6.82 49.34,6.85 49.44,6.88 49.53,6.94 49.62,6.99 49.69,7.08 49.75,7.16 49.79,7.26 49.82,7.36 49.83,7.47 49.83,7.57 49.80,7.67 49.76,7.77 49.70,7.86 49.64,7.95 49.55,8.01 49.47,8.07 49.36,8.10 49.26,8.13 49.16,8.13 49.05,8.12 48.95,8.09 48.85,8.05 48.77,7.98 48.69,7.91 48.63,7.82 48.57,7.73 48.55,7.63 48.52,7.53 48.53,7.42 48.54,7.32 48.58,7.22 48.63,7.12 48.70,7.04 48.77,6.96 48.86,6.91 48.96,6.86 49.06,6.84 49.17,6.82 49.27,6.84 49.38,6.85 49.47,6.90 49.57,6.95 49.64,7.02 49.71,7.10 49.76,7.20 49.81,7.29 49.82,7.40 49.83,7.50 49.81,7.61 49.79,7.71 49.74,7.80 49.69,7.89 49.61,7.96 49.53,8.03 49.43,8.08 49.33,8.12 49.23,8.12 49.12,8.13 49.12,8.13 49.12,8.13 45.18,7.85 41.24,7.57 31.83,7.10 22.41,6.62 14.82,4.69 7.23,2.76 3.07,1.61 -1.08,0.46 -2.02,0.32 -2.96,0.18 -3.11,0.08 -3.26,-0.01 -3.39,-0.14 -3.51,-0.27 -3.60,-0.43 -3.68,-0.59 -3.73,-0.76 -3.78,-0.94 -3.78,-1.12 -3.78,-1.30 -3.74,-1.47 -3.70,-1.65 -3.62,-1.81 -3.54,-1.97 -3.43,-2.11 -3.31,-2.24 -3.16,-2.35 -3.02,-2.46 -2.85,-2.52 -2.68,-2.59 -2.50,-2.62 -2.32,-2.64 -2.15,-2.62 -1.97,-2.60 -1.80,-2.54 -1.63,-2.48 -0.49,-1.88 0.63,-1.27 0.78,-1.18 0.92,-1.08 1.04,-0.96 1.15,-0.83 1.24,-0.68 1.32,-0.53 1.36,-0.36 1.41,-0.19 1.41,-0.02 1.42,0.14 1.38,0.31 1.34,0.47 1.26,0.63 1.19,0.78 1.07,0.91 0.96,1.04 0.82,1.15 0.68,1.25 0.52,1.31 0.36,1.37 0.19,1.40 0.02,1.42 -0.14,1.40 -0.31,1.39 -0.47,1.33 -0.63,1.27 -0.63,1.27 L -0.63,1.27 Z"></path></g><g transform="translate(541 358) rotate(0 53 2)" stroke="none"><path fill="#1e1e1e" d="M 0,0.94 Q 0,0.94 -2.58,0.98 -5.16,1.02 -8.73,1.90 -12.29,2.77 -16.34,4.58 -20.39,6.38 -23.75,8.81 -27.12,11.24 -28.72,14.12 -30.33,16.99 -30.45,19.73 -30.57,22.46 -29.04,24.87 -27.50,27.28 -24.16,28.82 -20.83,30.36 -16.41,30.19 -11.98,30.02 -7.04,27.71 -2.10,25.41 2.58,22.16 7.27,18.91 11.25,15.26 15.23,11.61 17.50,9.48 19.78,7.34 20.18,6.41 20.59,5.48 20.71,5.39 20.82,5.31 20.95,5.25 21.09,5.20 21.23,5.18 21.37,5.15 21.51,5.17 21.66,5.18 21.79,5.23 21.93,5.28 22.05,5.35 22.17,5.43 22.27,5.54 22.37,5.64 22.44,5.77 22.51,5.89 22.54,6.03 22.58,6.17 22.59,6.31 22.59,6.46 22.56,6.60 22.53,6.74 22.47,6.86 22.40,6.99 22.31,7.10 22.22,7.21 21.27,8.23 20.32,9.25 18.84,11.89 17.35,14.52 16.16,18.45 14.98,22.37 14.46,25.96 13.95,29.56 14.53,31.23 15.11,32.91 16.51,32.92 17.91,32.92 19.54,30.50 21.18,28.08 22.79,23.96 24.39,19.84 25.37,15.82 26.34,11.80 26.18,9.37 26.01,6.95 25.72,5.96 25.42,4.96 26.56,5.79 27.69,6.61 29.76,7.22 31.82,7.83 35.08,6.69 38.34,5.55 42.86,2.27 47.37,-1.00 51.83,-6.36 56.29,-11.72 59.32,-17.11 62.34,-22.50 63.33,-25.37 64.32,-28.25 64.43,-28.78 64.53,-29.31 62.31,-28.04 60.09,-26.76 57.57,-23.23 55.06,-19.70 52.53,-14.76 49.99,-9.83 48.66,-4.10 47.32,1.61 47.04,7.71 46.75,13.82 48.31,18.81 49.86,23.81 52.65,26.64 55.43,29.46 59.53,30.34 63.63,31.21 67.78,29.66 71.93,28.11 75.94,24.68 79.95,21.24 83.71,17.47 87.46,13.71 89.60,10.99 91.74,8.28 93.00,7.62 94.26,6.95 92.77,7.65 91.29,8.34 89.27,11.00 87.26,13.65 86.15,16.96 85.04,20.27 84.55,23.59 84.06,26.90 84.72,28.48 85.38,30.06 86.75,30.21 88.12,30.35 89.98,28.58 91.84,26.80 93.79,23.02 95.73,19.24 97.16,15.06 98.58,10.88 99.18,8.00 99.78,5.12 99.76,3.85 99.73,2.59 99.78,2.43 99.83,2.28 99.92,2.15 100.01,2.01 100.12,1.90 100.24,1.79 100.38,1.71 100.52,1.63 100.67,1.59 100.82,1.55 100.98,1.54 101.14,1.54 101.30,1.57 101.46,1.60 101.60,1.67 101.74,1.74 101.87,1.84 101.99,1.94 102.09,2.07 102.18,2.20 102.24,2.35 102.31,2.50 102.33,2.65 102.36,2.81 102.34,2.97 102.33,3.13 101.54,3.72 100.76,4.30 100.71,5.56 100.66,6.83 101.10,8.38 101.55,9.93 102.73,11.30 103.90,12.67 105.89,13.19 107.89,13.71 109.95,13.16 112.02,12.62 113.63,10.82 115.23,9.02 116.19,6.39 117.14,3.75 117.28,1.30 117.41,-1.14 116.94,-2.62 116.47,-4.10 116.04,-4.98 115.61,-5.85 115.37,-6.02 115.13,-6.20 115.08,-6.35 115.03,-6.50 115.01,-6.66 115.00,-6.82 115.02,-6.97 115.04,-7.13 115.10,-7.28 115.16,-7.42 115.26,-7.55 115.35,-7.68 115.47,-7.78 115.59,-7.88 115.73,-7.95 115.87,-8.02 116.03,-8.06 116.18,-8.09 116.34,-8.09 116.50,-8.08 116.65,-8.04 116.80,-8.00 116.94,-7.92 117.08,-7.85 117.20,-7.74 117.31,-7.63 117.40,-7.50 117.48,-7.37 118.43,-6.44 119.37,-5.52 121.25,-3.62 123.13,-1.73 125.44,1.45 127.75,4.63 130.17,8.58 132.59,12.53 134.67,16.88 136.75,21.23 138.29,25.14 139.83,29.05 139.86,29.15 139.89,29.25 139.88,29.36 139.88,29.47 139.84,29.56 139.80,29.66 139.73,29.74 139.66,29.82 139.57,29.88 139.47,29.93 139.37,29.95 139.27,29.97 139.16,29.96 139.06,29.95 138.96,29.90 138.86,29.86 138.79,29.79 138.71,29.71 138.66,29.62 138.61,29.52 138.60,29.42 138.58,29.31 138.60,29.21 138.62,29.10 138.67,29.01 138.72,28.92 138.79,28.84 138.87,28.77 138.97,28.73 139.07,28.68 139.17,28.67 139.28,28.66 139.38,28.69 139.48,28.71 139.57,28.77 139.67,28.82 139.73,28.90 139.80,28.98 139.84,29.08 139.88,29.18 139.88,29.29 139.89,29.40 139.86,29.50 139.83,29.60 139.77,29.69 139.71,29.77 139.62,29.84 139.54,29.90 139.44,29.93 139.34,29.97 139.23,29.97 139.12,29.97 139.02,29.93 138.92,29.90 138.84,29.83 138.76,29.77 138.70,29.68 138.64,29.59 138.64,29.59 138.64,29.59 136.74,25.89 134.84,22.20 132.59,18.05 130.34,13.90 127.98,10.04 125.62,6.17 123.45,3.14 121.27,0.11 119.38,-1.79 117.49,-3.69 116.31,-4.95 115.13,-6.20 115.08,-6.35 115.03,-6.50 115.01,-6.66 115.00,-6.82 115.02,-6.97 115.04,-7.13 115.10,-7.28 115.16,-7.42 115.26,-7.55 115.35,-7.68 115.47,-7.78 115.59,-7.88 115.73,-7.95 115.87,-8.02 116.03,-8.06 116.18,-8.09 116.34,-8.09 116.50,-8.08 116.65,-8.04 116.80,-8.00 116.94,-7.92 117.08,-7.85 117.19,-7.74 117.31,-7.63 117.40,-7.50 117.48,-7.37 117.67,-7.26 117.86,-7.16 118.43,-6.01 119.00,-4.86 119.53,-2.94 120.06,-1.02 119.84,1.81 119.62,4.66 118.40,7.72 117.17,10.78 115.00,12.91 112.83,15.05 110.07,15.64 107.31,16.22 104.70,15.35 102.10,14.48 100.58,12.58 99.05,10.68 98.56,8.59 98.06,6.50 98.90,4.54 99.73,2.59 99.78,2.43 99.83,2.28 99.92,2.15 100.01,2.01 100.12,1.90 100.24,1.79 100.38,1.71 100.52,1.63 100.67,1.59 100.82,1.55 100.98,1.54 101.14,1.54 101.30,1.57 101.46,1.60 101.60,1.67 101.74,1.74 101.87,1.84 101.99,1.94 102.09,2.07 102.18,2.20 102.24,2.35 102.31,2.50 102.33,2.65 102.36,2.81 102.34,2.97 102.33,3.13 102.35,4.39 102.37,5.64 101.72,8.69 101.08,11.74 99.57,16.10 98.07,20.47 95.83,24.61 93.60,28.76 91.02,30.75 88.45,32.75 86.15,32.29 83.85,31.83 82.65,29.29 81.45,26.75 81.98,23.08 82.51,19.40 83.82,15.73 85.13,12.06 87.44,9.12 89.75,6.18 91.62,5.01 93.50,3.85 94.81,4.61 96.13,5.37 94.95,7.63 93.78,9.89 91.54,12.72 89.30,15.54 85.46,19.38 81.62,23.23 77.24,26.88 72.85,30.54 68.06,32.14 63.27,33.75 58.51,32.57 53.75,31.40 50.58,28.05 47.41,24.70 45.77,19.22 44.13,13.74 44.45,7.38 44.77,1.02 46.21,-4.99 47.65,-11.01 50.29,-16.13 52.94,-21.24 55.84,-25.11 58.75,-28.98 61.16,-30.25 63.57,-31.52 65.10,-29.91 66.63,-28.30 65.56,-24.80 64.50,-21.29 61.34,-15.72 58.17,-10.15 53.48,-4.60 48.80,0.94 43.96,4.39 39.12,7.83 35.25,8.98 31.39,10.13 28.87,9.37 26.34,8.60 24.92,7.44 23.49,6.28 23.71,4.88 23.94,3.49 25.20,3.32 26.45,3.16 27.44,4.95 28.42,6.75 28.55,9.54 28.69,12.34 27.65,16.53 26.62,20.72 24.86,25.11 23.11,29.49 20.89,32.20 18.67,34.90 16.41,34.80 14.14,34.69 12.87,32.05 11.60,29.41 12.14,25.54 12.68,21.67 13.98,17.51 15.27,13.35 16.92,10.49 18.57,7.64 19.58,6.56 20.59,5.48 20.71,5.39 20.82,5.31 20.95,5.25 21.09,5.20 21.23,5.18 21.37,5.15 21.51,5.17 21.66,5.18 21.79,5.23 21.93,5.28 22.05,5.35 22.17,5.43 22.27,5.54 22.37,5.64 22.44,5.77 22.51,5.89 22.54,6.03 22.58,6.17 22.59,6.31 22.59,6.46 22.56,6.60 22.53,6.74 22.47,6.86 22.40,6.99 22.31,7.10 22.22,7.21 21.82,8.11 21.43,9.00 19.12,11.16 16.81,13.33 12.70,17.08 8.60,20.83 3.73,24.19 -1.12,27.54 -6.49,29.94 -11.85,32.35 -16.79,32.43 -21.74,32.51 -25.55,30.58 -29.37,28.65 -31.13,25.61 -32.89,22.57 -32.66,19.24 -32.43,15.92 -30.49,12.65 -28.55,9.38 -24.94,6.83 -21.32,4.27 -17.06,2.47 -12.79,0.67 -8.99,-0.17 -5.18,-1.02 -2.59,-0.98 0,-0.94 0.11,-0.93 0.22,-0.92 0.33,-0.88 0.44,-0.84 0.53,-0.77 0.62,-0.71 0.70,-0.62 0.78,-0.53 0.83,-0.43 0.88,-0.33 0.91,-0.22 0.94,-0.11 0.94,0.00 0.94,0.11 0.91,0.22 0.88,0.33 0.83,0.43 0.78,0.53 0.70,0.62 0.62,0.71 0.53,0.77 0.44,0.84 0.33,0.88 0.22,0.92 0.11,0.93 -0.00,0.94 -0.00,0.94 L 0,0.94 Z"></path></g><g transform="translate(359 632) rotate(0 37.5 -11)" stroke="none"><path fill="#1e1e1e" d="M 0.21,0.86 Q 0.21,0.86 -0.92,1.18 -2.06,1.49 -2.18,1.51 -2.29,1.52 -2.41,1.51 -2.52,1.49 -2.63,1.45 -2.73,1.41 -2.83,1.35 -2.92,1.28 -3.00,1.20 -3.07,1.11 -3.13,1.01 -3.18,0.91 -3.21,0.80 -3.24,0.69 -3.24,0.57 -3.24,0.46 -3.21,0.35 -3.18,0.24 -3.13,0.13 -3.08,0.03 -3.00,-0.04 -2.93,-0.13 -2.83,-0.19 -2.74,-0.26 -2.63,-0.30 -2.53,-0.34 -1.78,-1.03 -1.03,-1.71 1.93,-4.06 4.91,-6.40 8.68,-10.78 12.45,-15.16 15.77,-20.16 19.08,-25.16 21.06,-28.70 23.04,-32.25 23.31,-32.92 23.57,-33.59 23.66,-33.70 23.74,-33.81 23.85,-33.90 23.95,-33.99 24.08,-34.05 24.20,-34.11 24.34,-34.14 24.48,-34.17 24.62,-34.17 24.76,-34.17 24.89,-34.13 25.03,-34.09 25.15,-34.02 25.27,-33.96 25.37,-33.86 25.47,-33.76 25.55,-33.65 25.63,-33.53 25.67,-33.40 25.72,-33.27 25.73,-33.13 25.74,-32.99 25.72,-32.85 25.70,-32.71 25.65,-32.58 25.60,-32.45 24.90,-30.25 24.20,-28.05 23.03,-23.65 21.86,-19.25 21.37,-14.30 20.89,-9.34 21.24,-5.02 21.60,-0.69 23.08,2.08 24.56,4.87 26.88,5.96 29.21,7.05 31.74,5.88 34.28,4.71 37.03,1.48 39.79,-1.74 41.83,-5.66 43.87,-9.58 45.06,-11.88 46.26,-14.18 46.75,-14.55 47.24,-14.93 47.32,-15.05 47.40,-15.16 47.50,-15.25 47.60,-15.34 47.72,-15.41 47.84,-15.47 47.98,-15.50 48.11,-15.54 48.24,-15.54 48.38,-15.54 48.51,-15.51 48.65,-15.47 48.77,-15.41 48.89,-15.35 48.99,-15.26 49.10,-15.17 49.17,-15.05 49.25,-14.94 49.30,-14.81 49.35,-14.69 49.37,-14.55 49.39,-14.41 49.37,-14.28 49.35,-14.14 49.31,-14.01 49.26,-13.89 49.25,-12.56 49.24,-11.24 48.92,-7.68 48.60,-4.13 49.04,-0.44 49.47,3.23 50.74,6.39 52.01,9.55 53.61,10.73 55.20,11.91 57.75,10.77 60.30,9.63 63.04,6.41 65.78,3.20 68.41,-1.29 71.03,-5.79 72.73,-9.15 74.42,-12.51 75.44,-14.29 76.46,-16.06 76.59,-16.22 76.72,-16.39 76.81,-16.50 76.90,-16.62 77.01,-16.72 77.13,-16.81 77.27,-16.87 77.40,-16.93 77.55,-16.96 77.69,-16.99 77.84,-16.98 77.99,-16.98 78.13,-16.93 78.27,-16.89 78.40,-16.82 78.53,-16.74 78.64,-16.64 78.74,-16.53 78.82,-16.41 78.90,-16.28 78.95,-16.14 78.99,-16.00 79.00,-15.85 79.01,-15.70 78.99,-15.55 78.96,-15.41 78.90,-15.27 78.84,-15.13 78.16,-14.78 77.49,-14.43 77.44,-13.53 77.39,-12.64 77.03,-11.06 76.66,-9.48 76.64,-9.38 76.62,-9.28 76.57,-9.18 76.52,-9.09 76.44,-9.02 76.36,-8.95 76.27,-8.90 76.17,-8.86 76.06,-8.85 75.96,-8.84 75.85,-8.87 75.75,-8.89 75.66,-8.95 75.57,-9.01 75.50,-9.09 75.44,-9.17 75.40,-9.27 75.36,-9.37 75.36,-9.48 75.35,-9.58 75.38,-9.68 75.42,-9.79 75.48,-9.87 75.54,-9.96 75.62,-10.02 75.71,-10.08 75.81,-10.12 75.91,-10.15 76.02,-10.15 76.13,-10.14 76.23,-10.11 76.33,-10.07 76.41,-10.01 76.49,-9.94 76.55,-9.85 76.61,-9.76 76.63,-9.66 76.66,-9.56 76.65,-9.45 76.64,-9.34 76.60,-9.25 76.56,-9.15 76.49,-9.07 76.42,-8.99 76.33,-8.94 76.24,-8.88 76.13,-8.86 76.03,-8.84 75.92,-8.86 75.82,-8.87 75.72,-8.92 75.63,-8.96 75.55,-9.04 75.47,-9.11 75.43,-9.21 75.38,-9.30 75.36,-9.41 75.35,-9.51 75.35,-9.51 75.35,-9.51 75.11,-11.28 74.87,-13.04 74.99,-13.71 75.11,-14.37 75.91,-15.38 76.72,-16.39 76.81,-16.50 76.90,-16.62 77.01,-16.72 77.13,-16.81 77.27,-16.87 77.40,-16.93 77.55,-16.96 77.69,-16.99 77.84,-16.98 77.99,-16.98 78.13,-16.93 78.27,-16.89 78.40,-16.82 78.53,-16.74 78.64,-16.64 78.74,-16.53 78.82,-16.41 78.90,-16.28 78.95,-16.14 78.99,-16.00 79.00,-15.85 79.01,-15.70 78.99,-15.55 78.96,-15.41 78.90,-15.27 78.84,-15.13 78.69,-14.98 78.53,-14.83 77.51,-13.14 76.49,-11.46 74.75,-8.05 73.01,-4.63 70.26,0.03 67.51,4.70 64.36,8.19 61.22,11.68 58.04,12.78 54.86,13.89 52.44,12.22 50.03,10.56 48.62,7.04 47.22,3.51 46.78,-0.40 46.33,-4.32 46.65,-7.84 46.97,-11.35 47.11,-13.14 47.24,-14.93 47.32,-15.05 47.40,-15.16 47.50,-15.25 47.60,-15.34 47.72,-15.41 47.84,-15.47 47.98,-15.50 48.11,-15.54 48.24,-15.54 48.38,-15.54 48.51,-15.51 48.65,-15.47 48.77,-15.41 48.89,-15.35 48.99,-15.26 49.10,-15.17 49.17,-15.05 49.25,-14.94 49.30,-14.81 49.35,-14.69 49.37,-14.55 49.39,-14.42 49.37,-14.28 49.35,-14.14 49.31,-14.02 49.26,-13.89 48.74,-13.47 48.22,-13.06 47.05,-10.79 45.87,-8.52 43.69,-4.40 41.50,-0.27 38.37,3.24 35.23,6.75 32.03,7.94 28.83,9.12 25.78,7.63 22.73,6.13 21.02,2.84 19.32,-0.44 18.95,-5.00 18.58,-9.56 19.10,-14.70 19.62,-19.84 20.81,-24.30 21.99,-28.76 22.78,-31.17 23.57,-33.59 23.66,-33.70 23.74,-33.81 23.85,-33.90 23.95,-33.99 24.08,-34.05 24.20,-34.11 24.34,-34.14 24.48,-34.17 24.62,-34.17 24.76,-34.17 24.89,-34.13 25.03,-34.09 25.15,-34.02 25.27,-33.96 25.37,-33.86 25.47,-33.76 25.55,-33.65 25.63,-33.53 25.67,-33.40 25.72,-33.27 25.73,-33.13 25.74,-32.99 25.72,-32.85 25.70,-32.71 25.65,-32.58 25.60,-32.45 25.31,-31.80 25.02,-31.15 22.99,-27.53 20.96,-23.91 17.54,-18.81 14.13,-13.70 10.19,-9.21 6.24,-4.71 3.23,-2.40 0.23,-0.09 -0.91,0.70 -2.06,1.49 -2.18,1.51 -2.29,1.52 -2.41,1.51 -2.52,1.49 -2.63,1.45 -2.73,1.41 -2.83,1.35 -2.92,1.28 -3.00,1.20 -3.07,1.11 -3.13,1.01 -3.18,0.91 -3.21,0.80 -3.24,0.69 -3.24,0.57 -3.24,0.46 -3.21,0.35 -3.18,0.24 -3.13,0.13 -3.08,0.03 -3.00,-0.04 -2.93,-0.13 -2.83,-0.19 -2.74,-0.26 -2.63,-0.30 -2.53,-0.34 -1.37,-0.60 -0.21,-0.86 -0.11,-0.88 -0.00,-0.89 0.10,-0.88 0.21,-0.86 0.31,-0.83 0.41,-0.79 0.50,-0.73 0.59,-0.67 0.66,-0.59 0.73,-0.51 0.78,-0.41 0.83,-0.32 0.86,-0.21 0.88,-0.11 0.88,-0.00 0.88,0.10 0.86,0.20 0.83,0.31 0.78,0.41 0.73,0.50 0.66,0.58 0.59,0.66 0.50,0.72 0.41,0.79 0.31,0.82 0.21,0.86 0.21,0.86 L 0.21,0.86 Z"></path></g><g transform="translate(442 613) rotate(0 -13.5 41)" stroke="none"><path fill="#1e1e1e" d="M 0.75,0.45 Q 0.75,0.45 -0.06,1.91 -0.87,3.37 -1.47,5.06 -2.06,6.75 -2.58,9.44 -3.10,12.13 -3.30,15.82 -3.51,19.51 -3.88,24.28 -4.26,29.05 -5.28,34.59 -6.31,40.12 -7.61,46.20 -8.92,52.28 -11.22,58.39 -13.52,64.50 -16.26,69.45 -19.00,74.40 -22.06,76.94 -25.12,79.48 -27.73,79.32 -30.34,79.16 -30.90,76.80 -31.45,74.43 -29.61,69.74 -27.78,65.04 -23.78,59.32 -19.79,53.60 -14.29,48.00 -8.80,42.40 -4.92,39.28 -1.03,36.16 0.59,34.84 2.22,33.52 2.31,33.46 2.40,33.41 2.50,33.39 2.61,33.36 2.71,33.37 2.82,33.38 2.92,33.43 3.01,33.47 3.09,33.54 3.17,33.62 3.22,33.71 3.27,33.80 3.29,33.91 3.30,34.01 3.29,34.12 3.27,34.22 3.22,34.32 3.17,34.41 3.10,34.49 3.02,34.56 2.92,34.60 2.83,34.65 2.72,34.66 2.62,34.67 2.51,34.65 2.41,34.63 2.32,34.58 2.23,34.52 2.16,34.44 2.09,34.36 2.05,34.26 2.01,34.16 2.00,34.06 1.99,33.95 2.02,33.85 2.05,33.75 2.11,33.66 2.17,33.57 2.25,33.50 2.34,33.44 2.44,33.41 2.54,33.37 2.64,33.37 2.75,33.37 2.85,33.40 2.95,33.44 3.04,33.50 3.12,33.56 3.18,33.65 3.24,33.74 3.27,33.84 3.30,33.94 3.30,34.05 3.29,34.15 3.25,34.25 3.21,34.35 3.14,34.43 3.08,34.52 3.08,34.52 3.08,34.52 1.53,35.93 -0.00,37.35 -3.59,40.67 -7.18,43.99 -12.50,49.48 -17.83,54.98 -21.70,60.47 -25.57,65.96 -27.35,70.07 -29.14,74.18 -28.74,76.30 -28.34,78.42 -27.36,77.98 -26.39,77.55 -23.71,75.38 -21.03,73.21 -18.38,68.44 -15.73,63.67 -13.48,57.72 -11.23,51.78 -9.93,45.73 -8.64,39.69 -7.61,34.27 -6.58,28.86 -6.17,24.11 -5.77,19.36 -5.49,15.53 -5.22,11.70 -4.61,8.87 -4.00,6.03 -3.28,4.20 -2.57,2.37 -1.66,0.95 -0.75,-0.45 -0.68,-0.53 -0.62,-0.61 -0.54,-0.68 -0.45,-0.75 -0.36,-0.79 -0.26,-0.83 -0.16,-0.85 -0.05,-0.87 0.04,-0.87 0.15,-0.86 0.25,-0.83 0.35,-0.80 0.44,-0.74 0.53,-0.69 0.61,-0.61 0.69,-0.54 0.74,-0.45 0.80,-0.36 0.83,-0.26 0.86,-0.16 0.87,-0.05 0.87,0.05 0.85,0.15 0.84,0.25 0.79,0.35 0.75,0.45 0.75,0.45 L 0.75,0.45 Z"></path></g><g transform="translate(363 607) rotate(0 13 -3.5)" stroke="none"><path fill="#1e1e1e" d="M -0.59,-0.95 Q -0.59,-0.95 1.71,-2.40 4.01,-3.85 9.48,-5.06 14.94,-6.28 19.85,-6.80 24.76,-7.33 24.87,-7.33 24.98,-7.32 25.08,-7.29 25.18,-7.25 25.26,-7.19 25.34,-7.12 25.40,-7.03 25.46,-6.94 25.49,-6.84 25.51,-6.74 25.51,-6.63 25.50,-6.53 25.46,-6.43 25.42,-6.33 25.35,-6.25 25.28,-6.17 25.19,-6.12 25.09,-6.06 24.99,-6.04 24.89,-6.02 24.78,-6.04 24.67,-6.05 24.58,-6.09 24.48,-6.14 24.41,-6.21 24.33,-6.29 24.28,-6.38 24.23,-6.48 24.22,-6.58 24.20,-6.69 24.22,-6.79 24.24,-6.90 24.29,-6.99 24.34,-7.08 24.42,-7.16 24.50,-7.23 24.60,-7.27 24.69,-7.31 24.80,-7.32 24.91,-7.33 25.01,-7.31 25.11,-7.28 25.20,-7.23 25.29,-7.17 25.36,-7.09 25.43,-7.01 25.47,-6.91 25.50,-6.81 25.51,-6.70 25.51,-6.60 25.48,-6.50 25.45,-6.39 25.39,-6.31 25.33,-6.22 25.24,-6.16 25.16,-6.09 25.06,-6.06 24.96,-6.03 24.96,-6.03 24.96,-6.03 20.18,-5.12 15.41,-4.20 10.29,-3.05 5.18,-1.89 2.88,-0.47 0.59,0.95 0.47,1.00 0.34,1.06 0.21,1.09 0.08,1.11 -0.05,1.11 -0.18,1.10 -0.31,1.06 -0.44,1.02 -0.56,0.96 -0.67,0.89 -0.77,0.79 -0.87,0.70 -0.94,0.59 -1.01,0.47 -1.05,0.34 -1.10,0.21 -1.11,0.08 -1.12,-0.05 -1.09,-0.18 -1.07,-0.31 -1.02,-0.44 -0.96,-0.56 -0.88,-0.67 -0.80,-0.78 -0.69,-0.86 -0.59,-0.95 -0.59,-0.95 L -0.59,-0.95 Z"></path></g><g transform="translate(485 621) rotate(0 -5.5 28.5)" stroke="none"><path fill="#1e1e1e" d="M 0.85,0.56 Q 0.85,0.56 -0.82,3.19 -2.49,5.81 -4.28,9.19 -6.08,12.58 -7.08,17.04 -8.08,21.49 -8.52,26.52 -8.96,31.55 -9.17,36.85 -9.37,42.15 -8.76,46.31 -8.15,50.48 -7.99,52.34 -7.84,54.19 -7.84,54.29 -7.83,54.40 -7.87,54.50 -7.90,54.60 -7.96,54.69 -8.02,54.77 -8.11,54.84 -8.20,54.90 -8.30,54.93 -8.40,54.96 -8.51,54.95 -8.61,54.95 -8.71,54.91 -8.81,54.87 -8.90,54.81 -8.98,54.74 -9.03,54.65 -9.09,54.56 -9.11,54.46 -9.14,54.35 -9.13,54.25 -9.12,54.14 -9.08,54.04 -9.03,53.95 -8.96,53.87 -8.89,53.79 -8.80,53.74 -8.70,53.69 -8.60,53.67 -8.50,53.65 -8.39,53.66 -8.29,53.68 -8.19,53.73 -8.10,53.78 -8.02,53.85 -7.95,53.93 -7.90,54.02 -7.85,54.12 -7.84,54.22 -7.83,54.33 -7.85,54.43 -7.87,54.54 -7.92,54.63 -7.98,54.72 -8.06,54.79 -8.14,54.86 -8.23,54.90 -8.33,54.94 -8.44,54.95 -8.54,54.96 -8.65,54.93 -8.75,54.91 -8.84,54.85 -8.93,54.79 -8.99,54.71 -9.06,54.62 -9.09,54.52 -9.13,54.42 -9.13,54.42 -9.13,54.42 -9.64,52.63 -10.14,50.85 -11.09,46.45 -12.04,42.06 -11.85,36.68 -11.66,31.30 -11.18,26.09 -10.70,20.88 -9.52,16.12 -8.35,11.36 -6.37,7.95 -4.40,4.53 -2.62,1.98 -0.85,-0.56 -0.77,-0.66 -0.69,-0.75 -0.59,-0.82 -0.49,-0.90 -0.37,-0.94 -0.26,-0.99 -0.13,-1.01 -0.01,-1.02 0.10,-1.01 0.22,-1.00 0.34,-0.95 0.46,-0.91 0.56,-0.84 0.66,-0.77 0.75,-0.68 0.83,-0.59 0.89,-0.48 0.95,-0.37 0.98,-0.25 1.01,-0.14 1.01,-0.01 1.02,0.10 0.99,0.22 0.96,0.34 0.91,0.45 0.85,0.57 0.85,0.56 L 0.85,0.56 Z"></path></g><g transform="translate(480 621) rotate(0 8 9)" stroke="none"><path fill="#1e1e1e" d="M -0.92,0 Q -0.92,0 -0.96,-1.50 -0.99,-3.01 0.24,-4.78 1.47,-6.55 3.90,-7.64 6.34,-8.72 9.31,-8.56 12.28,-8.39 14.36,-6.59 16.44,-4.79 16.44,-1.51 16.44,1.77 14.30,5.58 12.15,9.39 9.21,13.25 6.27,17.12 3.99,20.01 1.71,22.91 0.78,24.18 -0.14,25.45 -0.21,25.52 -0.29,25.60 -0.38,25.65 -0.47,25.70 -0.58,25.71 -0.68,25.73 -0.79,25.71 -0.89,25.70 -0.99,25.65 -1.08,25.60 -1.15,25.52 -1.23,25.44 -1.27,25.34 -1.31,25.25 -1.33,25.14 -1.34,25.04 -1.31,24.93 -1.29,24.83 -1.23,24.74 -1.18,24.65 -1.10,24.58 -1.02,24.51 -0.92,24.47 -0.82,24.43 -0.71,24.43 -0.61,24.42 -0.50,24.45 -0.40,24.48 -0.31,24.54 -0.23,24.60 -0.16,24.68 -0.10,24.77 -0.07,24.87 -0.03,24.97 -0.03,25.08 -0.03,25.18 -0.07,25.28 -0.10,25.38 -0.17,25.47 -0.23,25.55 -0.32,25.61 -0.41,25.67 -0.51,25.70 -0.61,25.73 -0.72,25.72 -0.82,25.72 -0.92,25.68 -1.02,25.64 -1.10,25.57 -1.18,25.50 -1.24,25.41 -1.29,25.31 -1.31,25.21 -1.34,25.11 -1.32,25.00 -1.31,24.90 -1.27,24.80 -1.22,24.70 -1.22,24.70 -1.22,24.70 -0.38,23.38 0.46,22.05 2.37,18.83 4.27,15.61 7.12,11.86 9.96,8.10 11.96,4.81 13.96,1.52 14.23,-1.08 14.50,-3.68 13.16,-4.91 11.82,-6.15 9.47,-6.36 7.11,-6.57 5.11,-5.83 3.12,-5.08 2.05,-3.91 0.99,-2.73 0.96,-1.36 0.92,0 0.91,0.11 0.89,0.22 0.86,0.32 0.82,0.43 0.75,0.52 0.69,0.61 0.61,0.68 0.52,0.76 0.42,0.81 0.32,0.86 0.22,0.89 0.11,0.92 -0.00,0.92 -0.11,0.92 -0.22,0.89 -0.32,0.86 -0.42,0.81 -0.52,0.76 -0.61,0.68 -0.69,0.61 -0.75,0.52 -0.82,0.43 -0.86,0.32 -0.89,0.22 -0.91,0.11 -0.92,-0.00 -0.92,-0.00 L -0.92,0 Z"></path></g><g transform="translate(532 625) rotate(0 -16.5 3)" stroke="none"><path fill="#1e1e1e" d="M -0.56,0.67 Q -0.56,0.67 -2.31,-0.72 -4.05,-2.12 -6.70,-3.21 -9.34,-4.30 -12.43,-5.03 -15.53,-5.76 -18.66,-5.21 -21.80,-4.67 -24.43,-2.83 -27.06,-0.99 -28.39,1.87 -29.71,4.74 -29.21,7.43 -28.71,10.11 -27.18,11.39 -25.65,12.66 -22.84,11.57 -20.03,10.47 -16.90,7.27 -13.77,4.08 -11.57,0.47 -9.36,-3.12 -7.36,-6.05 -5.35,-8.97 -5.28,-9.06 -5.22,-9.14 -5.13,-9.19 -5.04,-9.25 -4.93,-9.27 -4.83,-9.30 -4.72,-9.29 -4.62,-9.28 -4.52,-9.23 -4.42,-9.19 -4.35,-9.12 -4.27,-9.05 -4.22,-8.95 -4.17,-8.86 -4.15,-8.76 -4.13,-8.65 -4.14,-8.55 -4.16,-8.44 -4.21,-8.35 -4.26,-8.25 -4.33,-8.18 -4.41,-8.10 -4.51,-8.06 -4.60,-8.01 -4.71,-8.00 -4.81,-7.99 -4.92,-8.01 -5.02,-8.03 -5.11,-8.08 -5.20,-8.14 -5.27,-8.22 -5.34,-8.30 -5.38,-8.40 -5.42,-8.49 -5.43,-8.60 -5.44,-8.71 -5.41,-8.81 -5.38,-8.91 -5.33,-9.00 -5.27,-9.09 -5.18,-9.15 -5.10,-9.22 -5.00,-9.25 -4.90,-9.29 -4.79,-9.29 -4.69,-9.29 -4.59,-9.26 -4.48,-9.23 -4.40,-9.16 -4.31,-9.10 -4.25,-9.01 -4.19,-8.93 -4.16,-8.82 -4.13,-8.72 -4.14,-8.62 -4.14,-8.51 -4.18,-8.41 -4.22,-8.31 -4.22,-8.31 -4.22,-8.31 -5.80,-5.10 -7.37,-1.90 -9.74,1.91 -12.10,5.73 -15.65,9.18 -19.20,12.63 -22.64,13.63 -26.08,14.64 -28.43,12.74 -30.78,10.84 -31.30,7.42 -31.82,4.00 -30.14,0.61 -28.46,-2.77 -25.35,-4.82 -22.24,-6.88 -18.65,-7.38 -15.06,-7.89 -11.80,-7.04 -8.53,-6.18 -5.68,-4.90 -2.84,-3.62 -1.13,-2.14 0.56,-0.67 0.63,-0.59 0.70,-0.52 0.76,-0.42 0.81,-0.33 0.84,-0.23 0.87,-0.13 0.87,-0.02 0.87,0.07 0.85,0.18 0.83,0.28 0.78,0.38 0.73,0.47 0.67,0.55 0.60,0.64 0.51,0.70 0.43,0.76 0.33,0.80 0.23,0.84 0.13,0.86 0.02,0.88 -0.07,0.87 -0.18,0.86 -0.28,0.82 -0.38,0.79 -0.47,0.73 -0.56,0.67 -0.56,0.67 L -0.56,0.67 Z"></path></g><g transform="translate(553 621) rotate(0 39 30.5)" stroke="none"><path fill="#1e1e1e" d="M -0.72,0.58 Q -0.72,0.58 -1.82,-0.78 -2.91,-2.14 -4.84,-2.31 -6.77,-2.48 -9.14,-1.22 -11.52,0.02 -13.32,2.71 -15.11,5.41 -15.90,8.07 -16.68,10.74 -16.17,11.82 -15.66,12.90 -13.58,12.84 -11.50,12.78 -8.44,11.15 -5.39,9.52 -2.67,6.88 0.04,4.25 1.79,2.26 3.55,0.27 4.59,-0.87 5.63,-2.02 5.73,-2.11 5.83,-2.19 5.95,-2.25 6.06,-2.32 6.19,-2.35 6.32,-2.38 6.45,-2.38 6.58,-2.38 6.71,-2.35 6.83,-2.32 6.95,-2.26 7.07,-2.20 7.16,-2.11 7.26,-2.02 7.34,-1.92 7.41,-1.81 7.46,-1.68 7.51,-1.56 7.52,-1.43 7.54,-1.30 7.52,-1.17 7.51,-1.04 7.46,-0.92 7.42,-0.80 7.34,-0.69 7.27,-0.58 7.56,-0.08 7.84,0.41 7.92,3.77 8.00,7.13 8.04,12.55 8.08,17.98 7.52,24.65 6.96,31.31 6.14,37.88 5.33,44.46 3.52,50.22 1.72,55.98 -0.58,59.99 -2.89,64.00 -5.69,64.83 -8.48,65.66 -10.15,63.57 -11.82,61.48 -11.96,57.19 -12.09,52.90 -10.36,47.57 -8.62,42.23 -4.96,36.47 -1.29,30.71 3.71,24.52 8.73,18.33 13.75,13.10 18.77,7.86 22.62,3.93 26.47,-0.00 28.35,-2.19 30.22,-4.37 30.47,-5.66 30.72,-6.95 30.83,-7.04 30.93,-7.14 31.06,-7.21 31.19,-7.28 31.33,-7.32 31.47,-7.36 31.62,-7.36 31.76,-7.36 31.90,-7.33 32.05,-7.30 32.18,-7.23 32.31,-7.17 32.42,-7.07 32.53,-6.98 32.61,-6.86 32.70,-6.74 32.75,-6.60 32.81,-6.47 32.83,-6.32 32.85,-6.18 32.83,-6.03 32.82,-5.89 32.77,-5.75 32.72,-5.61 32.64,-5.49 32.56,-5.37 30.86,-5.14 29.17,-4.91 27.75,-3.57 26.33,-2.23 25.14,-0.31 23.95,1.60 23.45,3.07 22.95,4.55 23.44,5.45 23.93,6.34 25.35,6.68 26.76,7.02 29.22,6.39 31.68,5.75 34.79,4.64 37.90,3.53 40.37,2.49 42.85,1.45 44.73,1.26 46.61,1.08 48.22,1.99 49.82,2.89 50.84,4.88 51.86,6.87 52.53,9.45 53.20,12.03 54.04,14.48 54.87,16.93 55.78,19.09 56.70,21.25 58.12,22.88 59.54,24.52 61.32,25.13 63.10,25.75 65.69,24.64 68.27,23.53 71.40,21.40 74.53,19.27 77.56,16.38 80.59,13.49 82.45,11.41 84.31,9.33 85.40,8.14 86.49,6.95 86.59,6.85 86.70,6.76 86.83,6.69 86.96,6.62 87.10,6.59 87.24,6.56 87.39,6.56 87.53,6.56 87.67,6.59 87.81,6.63 87.94,6.70 88.07,6.76 88.18,6.86 88.28,6.96 88.36,7.08 88.45,7.20 88.50,7.33 88.55,7.47 88.56,7.61 88.58,7.76 88.56,7.90 88.54,8.04 88.49,8.18 88.44,8.31 88.36,8.43 88.27,8.55 87.13,8.49 85.99,8.42 84.59,9.44 83.18,10.45 81.12,12.54 79.06,14.63 77.06,17.48 75.06,20.33 74.26,23.39 73.46,26.46 73.25,27.50 73.03,28.54 74.25,28.64 75.46,28.75 76.95,26.91 78.44,25.08 79.97,21.81 81.50,18.53 82.75,15.39 83.99,12.24 84.53,11.18 85.06,10.11 85.13,9.98 85.20,9.85 85.30,9.74 85.40,9.63 85.52,9.55 85.65,9.47 85.79,9.42 85.92,9.37 86.07,9.35 86.22,9.34 86.37,9.36 86.51,9.38 86.65,9.43 86.79,9.49 86.91,9.57 87.03,9.66 87.13,9.77 87.22,9.88 87.29,10.02 87.36,10.15 87.39,10.29 87.42,10.44 87.42,10.59 87.42,10.74 87.38,10.88 87.34,11.02 87.34,11.82 87.33,12.61 87.32,15.59 87.31,18.56 87.58,21.78 87.86,25.00 89.03,27.60 90.21,30.20 93.07,32.35 95.93,34.51 96.01,34.58 96.09,34.65 96.14,34.75 96.19,34.84 96.21,34.94 96.23,35.05 96.21,35.15 96.20,35.26 96.15,35.35 96.10,35.45 96.02,35.52 95.95,35.60 95.85,35.64 95.76,35.69 95.65,35.70 95.55,35.71 95.44,35.69 95.34,35.67 95.25,35.62 95.15,35.56 95.08,35.48 95.01,35.40 94.97,35.30 94.93,35.21 94.93,35.10 94.92,34.99 94.95,34.89 94.97,34.79 95.03,34.70 95.09,34.61 95.17,34.55 95.26,34.48 95.36,34.45 95.46,34.41 95.56,34.41 95.67,34.41 95.77,34.44 95.87,34.47 95.96,34.54 96.04,34.60 96.10,34.69 96.17,34.77 96.19,34.88 96.22,34.98 96.22,35.08 96.22,35.19 96.18,35.29 96.14,35.39 96.07,35.47 96.00,35.55 95.91,35.61 95.82,35.66 95.72,35.69 95.62,35.71 95.51,35.70 95.41,35.69 95.31,35.65 95.21,35.61 95.21,35.61 95.21,35.61 91.62,33.51 88.03,31.41 86.67,28.34 85.31,25.26 85.04,21.90 84.76,18.54 84.80,15.50 84.84,12.46 84.95,11.29 85.06,10.11 85.13,9.98 85.20,9.85 85.30,9.74 85.40,9.63 85.52,9.55 85.65,9.47 85.79,9.42 85.92,9.37 86.07,9.35 86.22,9.34 86.37,9.36 86.51,9.38 86.65,9.43 86.79,9.49 86.91,9.57 87.03,9.66 87.13,9.77 87.22,9.88 87.29,10.02 87.36,10.15 87.39,10.29 87.42,10.44 87.42,10.59 87.42,10.74 87.38,10.88 87.34,11.02 86.80,12.08 86.25,13.14 84.97,16.36 83.68,19.57 81.96,23.13 80.23,26.69 78.13,28.76 76.02,30.84 74.20,30.67 72.37,30.50 71.75,28.20 71.13,25.89 72.10,22.44 73.06,18.98 75.20,15.95 77.35,12.93 79.63,10.67 81.92,8.41 84.20,7.68 86.49,6.95 86.59,6.85 86.70,6.76 86.83,6.69 86.96,6.62 87.10,6.59 87.24,6.56 87.39,6.56 87.53,6.56 87.67,6.59 87.81,6.63 87.94,6.70 88.07,6.76 88.17,6.86 88.28,6.96 88.36,7.08 88.45,7.20 88.50,7.33 88.55,7.47 88.56,7.61 88.58,7.76 88.56,7.90 88.54,8.04 88.49,8.18 88.44,8.31 88.36,8.43 88.27,8.55 87.18,9.73 86.08,10.92 84.15,13.06 82.22,15.21 79.04,18.22 75.86,21.22 72.50,23.48 69.13,25.74 65.92,26.86 62.70,27.97 60.28,27.06 57.87,26.15 56.20,24.18 54.53,22.21 53.57,19.95 52.61,17.70 51.75,15.16 50.90,12.63 50.29,10.25 49.69,7.87 49.05,6.31 48.41,4.75 47.47,4.07 46.54,3.38 45.14,3.52 43.75,3.66 41.23,4.73 38.70,5.79 35.46,6.94 32.22,8.09 29.21,8.70 26.19,9.32 24.20,8.54 22.20,7.77 21.44,6.03 20.68,4.30 21.29,2.31 21.89,0.31 23.31,-1.87 24.73,-4.07 26.75,-5.64 28.76,-7.22 29.74,-7.08 30.72,-6.95 30.83,-7.04 30.93,-7.14 31.06,-7.21 31.19,-7.28 31.33,-7.32 31.47,-7.36 31.62,-7.36 31.76,-7.36 31.90,-7.33 32.05,-7.30 32.18,-7.23 32.31,-7.17 32.42,-7.07 32.53,-6.98 32.61,-6.86 32.70,-6.74 32.75,-6.60 32.81,-6.47 32.83,-6.32 32.85,-6.18 32.83,-6.03 32.82,-5.89 32.77,-5.75 32.72,-5.61 32.64,-5.49 32.56,-5.37 32.32,-4.17 32.09,-2.97 30.12,-0.67 28.15,1.63 24.30,5.56 20.46,9.49 15.50,14.64 10.54,19.80 5.59,25.88 0.65,31.96 -2.88,37.47 -6.41,42.98 -8.09,47.95 -9.76,52.92 -9.81,56.63 -9.85,60.34 -8.60,62.20 -7.35,64.05 -5.98,63.34 -4.61,62.63 -2.52,58.96 -0.44,55.28 1.31,49.73 3.07,44.17 3.88,37.64 4.70,31.12 5.26,24.56 5.83,17.99 5.81,12.58 5.79,7.17 5.74,3.97 5.68,0.77 5.66,-0.62 5.63,-2.02 5.73,-2.11 5.83,-2.19 5.95,-2.25 6.06,-2.32 6.19,-2.35 6.32,-2.38 6.45,-2.38 6.58,-2.38 6.71,-2.35 6.83,-2.32 6.95,-2.26 7.07,-2.20 7.16,-2.11 7.26,-2.02 7.34,-1.92 7.41,-1.81 7.46,-1.69 7.51,-1.56 7.52,-1.43 7.54,-1.30 7.52,-1.17 7.51,-1.04 7.46,-0.92 7.42,-0.80 7.34,-0.69 7.27,-0.58 6.22,0.56 5.18,1.70 3.37,3.76 1.56,5.82 -1.39,8.65 -4.35,11.47 -7.89,13.23 -11.43,14.98 -14.05,14.77 -16.67,14.55 -17.73,12.56 -18.80,10.57 -17.89,7.36 -16.98,4.15 -14.78,1.14 -12.59,-1.87 -9.63,-3.21 -6.68,-4.56 -4.18,-4.08 -1.68,-3.60 -0.47,-2.09 0.72,-0.58 0.78,-0.48 0.84,-0.38 0.87,-0.28 0.91,-0.17 0.91,-0.06 0.92,0.04 0.90,0.15 0.88,0.26 0.84,0.36 0.79,0.47 0.73,0.56 0.66,0.64 0.57,0.71 0.48,0.78 0.38,0.83 0.28,0.88 0.17,0.90 0.06,0.92 -0.04,0.92 -0.15,0.91 -0.26,0.88 -0.37,0.85 -0.46,0.79 -0.56,0.73 -0.64,0.65 -0.72,0.57 -0.72,0.58 L -0.72,0.58 Z"></path></g><g transform="translate(668 626) rotate(0 -3.5 37)" stroke="none"><path fill="#1e1e1e" d="M 0.96,0.48 Q 0.96,0.48 0.45,1.66 -0.05,2.84 -0.79,4.75 -1.54,6.66 -1.82,9.60 -2.09,12.54 -2.22,17.55 -2.34,22.55 -2.69,29.32 -3.03,36.09 -3.47,43.85 -3.91,51.61 -4.41,57.79 -4.92,63.98 -5.16,68.06 -5.39,72.15 -5.41,72.25 -5.42,72.36 -5.47,72.45 -5.52,72.55 -5.59,72.62 -5.66,72.70 -5.76,72.75 -5.85,72.79 -5.96,72.81 -6.07,72.82 -6.17,72.80 -6.27,72.78 -6.37,72.73 -6.46,72.68 -6.53,72.60 -6.60,72.52 -6.64,72.42 -6.69,72.33 -6.70,72.22 -6.70,72.11 -6.68,72.01 -6.65,71.91 -6.60,71.82 -6.54,71.73 -6.46,71.66 -6.37,71.60 -6.27,71.56 -6.17,71.52 -6.07,71.52 -5.96,71.52 -5.86,71.55 -5.76,71.58 -5.67,71.64 -5.59,71.70 -5.52,71.79 -5.46,71.87 -5.43,71.97 -5.40,72.08 -5.40,72.18 -5.40,72.29 -5.44,72.39 -5.48,72.49 -5.54,72.57 -5.61,72.65 -5.70,72.71 -5.79,72.77 -5.89,72.79 -5.99,72.82 -6.10,72.81 -6.21,72.80 -6.30,72.76 -6.40,72.72 -6.48,72.65 -6.56,72.58 -6.61,72.49 -6.67,72.39 -6.69,72.29 -6.71,72.19 -6.71,72.19 -6.71,72.19 -7.19,67.98 -7.67,63.77 -7.23,57.61 -6.79,51.45 -6.36,43.69 -5.92,35.94 -5.57,29.20 -5.21,22.47 -5.04,17.35 -4.87,12.23 -4.45,8.93 -4.03,5.64 -3.13,3.69 -2.24,1.75 -1.60,0.63 -0.96,-0.48 -0.88,-0.58 -0.81,-0.69 -0.72,-0.78 -0.62,-0.87 -0.51,-0.93 -0.40,-0.99 -0.27,-1.02 -0.15,-1.06 -0.02,-1.06 0.10,-1.06 0.23,-1.03 0.36,-1.01 0.47,-0.95 0.59,-0.89 0.69,-0.81 0.78,-0.72 0.86,-0.62 0.94,-0.51 0.98,-0.39 1.03,-0.27 1.05,-0.14 1.07,-0.02 1.06,0.10 1.04,0.23 1.00,0.35 0.96,0.48 0.96,0.48 L 0.96,0.48 Z"></path></g><g transform="translate(669 635) rotate(0 2.5 8)" stroke="none"><path fill="#1e1e1e" d="M -0.88,-0.29 Q -0.88,-0.29 -0.62,-1.23 -0.35,-2.18 0.89,-3.10 2.15,-4.02 4.08,-3.78 6.01,-3.54 7.30,-2.26 8.59,-0.98 8.55,1.20 8.51,3.39 7.24,6.12 5.96,8.84 4.24,11.42 2.52,14.00 0.01,16.60 -2.50,19.20 -2.58,19.27 -2.66,19.34 -2.76,19.38 -2.85,19.42 -2.96,19.43 -3.07,19.44 -3.17,19.41 -3.27,19.39 -3.36,19.33 -3.45,19.27 -3.52,19.19 -3.58,19.10 -3.62,19.00 -3.65,18.90 -3.66,18.80 -3.66,18.69 -3.63,18.59 -3.59,18.49 -3.53,18.40 -3.47,18.32 -3.38,18.25 -3.29,18.19 -3.19,18.16 -3.09,18.13 -2.99,18.14 -2.88,18.14 -2.78,18.18 -2.68,18.21 -2.60,18.28 -2.52,18.35 -2.46,18.44 -2.40,18.53 -2.38,18.63 -2.35,18.74 -2.36,18.84 -2.37,18.95 -2.41,19.04 -2.46,19.14 -2.53,19.22 -2.60,19.30 -2.69,19.35 -2.79,19.40 -2.89,19.42 -2.99,19.44 -3.10,19.43 -3.20,19.41 -3.30,19.36 -3.39,19.31 -3.47,19.24 -3.54,19.16 -3.59,19.07 -3.64,18.97 -3.65,18.87 -3.66,18.76 -3.64,18.66 -3.62,18.55 -3.57,18.46 -3.52,18.37 -3.52,18.37 -3.52,18.37 -1.55,15.48 0.40,12.58 2.02,10.15 3.64,7.71 4.81,5.41 5.98,3.10 6.28,1.58 6.58,0.06 5.96,-0.63 5.34,-1.33 4.13,-1.68 2.93,-2.03 2.21,-1.65 1.50,-1.26 1.19,-0.48 0.88,0.29 0.83,0.39 0.78,0.49 0.71,0.58 0.64,0.67 0.55,0.74 0.46,0.80 0.36,0.85 0.26,0.89 0.14,0.91 0.03,0.93 -0.07,0.92 -0.18,0.91 -0.29,0.87 -0.39,0.84 -0.49,0.78 -0.59,0.72 -0.66,0.64 -0.74,0.56 -0.80,0.46 -0.85,0.36 -0.89,0.25 -0.92,0.15 -0.92,0.03 -0.93,-0.07 -0.90,-0.18 -0.88,-0.29 -0.88,-0.29 L -0.88,-0.29 Z"></path></g><g transform="translate(686 642) rotate(0 42.5 20)" stroke="none"><path fill="#1e1e1e" d="M -0.64,-0.64 Q -0.64,-0.64 1.02,-2.42 2.69,-4.20 4.76,-7.19 6.83,-10.19 9.13,-15.13 11.43,-20.07 13.56,-25.90 15.69,-31.73 17.16,-36.77 18.64,-41.81 18.70,-44.90 18.76,-48.00 18.12,-49.27 17.48,-50.53 15.87,-50.08 14.27,-49.63 12.29,-46.47 10.30,-43.32 9.15,-37.77 7.99,-32.22 7.20,-25.52 6.40,-18.83 6.06,-12.26 5.72,-5.70 6.14,-0.99 6.56,3.72 7.49,5.65 8.42,7.59 10.06,7.36 11.70,7.13 13.69,4.63 15.69,2.12 18.05,-1.52 20.41,-5.17 22.65,-7.68 24.89,-10.20 27.06,-10.86 29.23,-11.52 29.75,-10.66 30.28,-9.80 30.58,-7.20 30.87,-4.60 30.97,-1.26 31.07,2.07 31.38,4.83 31.69,7.58 32.63,9.00 33.58,10.42 34.90,10.22 36.23,10.02 38.38,7.80 40.54,5.59 42.95,2.36 45.36,-0.85 47.28,-3.40 49.19,-5.95 49.29,-6.06 49.39,-6.17 49.52,-6.24 49.64,-6.32 49.78,-6.37 49.92,-6.42 50.07,-6.43 50.21,-6.44 50.36,-6.42 50.50,-6.39 50.64,-6.34 50.77,-6.28 50.89,-6.19 51.01,-6.10 51.10,-5.99 51.19,-5.87 51.25,-5.74 51.32,-5.61 51.35,-5.47 51.38,-5.32 51.37,-5.18 51.36,-5.03 51.32,-4.89 51.28,-4.75 51.21,-4.62 51.14,-4.49 51.68,-4.51 52.23,-4.52 52.28,-1.65 52.33,1.22 52.58,4.22 52.83,7.23 53.91,8.80 54.99,10.37 56.43,10.76 57.87,11.15 59.83,9.16 61.79,7.16 64.10,3.53 66.41,-0.09 67.67,-3.31 68.93,-6.53 69.77,-7.94 70.62,-9.35 70.69,-9.48 70.76,-9.61 70.86,-9.72 70.95,-9.83 71.08,-9.91 71.20,-9.99 71.33,-10.04 71.47,-10.09 71.62,-10.11 71.76,-10.12 71.91,-10.10 72.05,-10.08 72.19,-10.03 72.33,-9.97 72.44,-9.89 72.56,-9.81 72.66,-9.69 72.75,-9.58 72.82,-9.45 72.89,-9.32 72.92,-9.18 72.95,-9.04 72.95,-8.89 72.95,-8.75 72.91,-8.60 72.88,-8.46 73.74,-5.12 74.61,-1.77 74.81,4.21 75.02,10.20 75.39,18.17 75.75,26.14 75.62,35.61 75.49,45.08 74.00,54.07 72.51,63.07 70.43,70.94 68.35,78.81 65.84,83.53 63.34,88.26 61.65,88.60 59.95,88.95 59.86,89.09 59.77,89.23 59.64,89.34 59.52,89.45 59.37,89.53 59.22,89.60 59.06,89.64 58.90,89.68 58.73,89.69 58.57,89.69 58.40,89.65 58.24,89.61 58.09,89.53 57.95,89.45 57.82,89.34 57.70,89.23 57.60,89.10 57.51,88.96 57.45,88.81 57.39,88.65 57.37,88.49 57.34,88.32 57.36,88.15 57.38,87.99 57.44,87.83 57.50,87.68 56.65,84.58 55.81,81.48 57.20,74.53 58.59,67.59 61.81,59.46 65.03,51.34 69.72,43.05 74.41,34.76 77.32,30.14 80.24,25.52 81.46,23.56 82.68,21.60 82.75,21.51 82.82,21.43 82.91,21.38 83.00,21.32 83.11,21.30 83.21,21.28 83.31,21.29 83.42,21.30 83.52,21.34 83.61,21.39 83.69,21.46 83.77,21.53 83.82,21.63 83.87,21.72 83.89,21.82 83.90,21.93 83.89,22.03 83.87,22.14 83.82,22.23 83.77,22.33 83.70,22.40 83.62,22.47 83.52,22.52 83.43,22.56 83.32,22.58 83.22,22.59 83.11,22.57 83.01,22.54 82.92,22.49 82.83,22.43 82.76,22.35 82.69,22.27 82.65,22.17 82.61,22.08 82.60,21.97 82.59,21.86 82.62,21.76 82.65,21.66 82.71,21.57 82.77,21.48 82.85,21.42 82.94,21.35 83.04,21.32 83.14,21.28 83.24,21.28 83.35,21.28 83.45,21.32 83.55,21.35 83.64,21.41 83.72,21.48 83.78,21.57 83.84,21.65 83.87,21.76 83.90,21.86 83.90,21.96 83.89,22.07 83.85,22.17 83.81,22.27 83.81,22.27 83.81,22.27 82.67,24.28 81.53,26.29 78.88,31.02 76.24,35.75 71.90,44.05 67.56,52.34 64.42,60.25 61.29,68.15 59.89,74.57 58.50,80.98 59.23,84.97 59.95,88.95 59.86,89.09 59.77,89.22 59.64,89.34 59.52,89.45 59.37,89.53 59.22,89.60 59.06,89.64 58.90,89.68 58.73,89.69 58.57,89.69 58.40,89.65 58.24,89.61 58.09,89.53 57.95,89.45 57.82,89.34 57.70,89.23 57.60,89.10 57.51,88.96 57.45,88.81 57.39,88.65 57.37,88.49 57.34,88.32 57.36,88.15 57.38,87.99 57.44,87.83 57.50,87.68 59.50,87.10 61.50,86.52 63.64,82.32 65.77,78.11 67.83,70.37 69.90,62.63 71.39,53.83 72.89,45.04 73.02,35.65 73.15,26.26 72.79,18.27 72.42,10.28 72.25,4.43 72.08,-1.41 71.74,-4.29 71.41,-7.18 71.01,-8.26 70.62,-9.35 70.69,-9.48 70.76,-9.61 70.86,-9.72 70.95,-9.83 71.08,-9.91 71.20,-9.99 71.33,-10.04 71.47,-10.09 71.62,-10.11 71.76,-10.12 71.91,-10.10 72.05,-10.08 72.19,-10.03 72.32,-9.97 72.44,-9.89 72.56,-9.81 72.66,-9.69 72.75,-9.58 72.82,-9.45 72.89,-9.32 72.92,-9.18 72.95,-9.04 72.95,-8.89 72.95,-8.75 72.91,-8.60 72.88,-8.46 72.03,-7.05 71.19,-5.63 69.83,-2.21 68.47,1.21 65.97,5.09 63.47,8.98 60.88,11.14 58.29,13.31 55.78,12.66 53.27,12.02 51.83,9.80 50.39,7.58 50.12,4.37 49.85,1.16 50.03,-1.09 50.20,-3.36 49.70,-4.66 49.19,-5.95 49.29,-6.06 49.39,-6.17 49.52,-6.24 49.64,-6.32 49.78,-6.37 49.92,-6.42 50.07,-6.43 50.21,-6.44 50.36,-6.42 50.50,-6.39 50.64,-6.34 50.77,-6.28 50.89,-6.19 51.01,-6.10 51.10,-5.99 51.19,-5.87 51.25,-5.74 51.32,-5.61 51.35,-5.47 51.38,-5.32 51.37,-5.18 51.36,-5.03 51.32,-4.89 51.28,-4.75 51.21,-4.62 51.14,-4.49 49.22,-1.94 47.31,0.60 44.76,3.97 42.22,7.34 39.48,9.81 36.74,12.28 34.67,12.29 32.60,12.30 30.97,10.15 29.34,8.00 28.99,5.07 28.65,2.14 28.56,-1.11 28.47,-4.38 28.33,-6.51 28.19,-8.64 27.69,-9.45 27.18,-10.25 26.93,-9.41 26.67,-8.57 24.56,-6.20 22.45,-3.84 19.99,-0.06 17.53,3.71 14.95,6.52 12.37,9.32 10.00,9.41 7.63,9.49 5.90,6.76 4.17,4.02 3.73,-0.90 3.29,-5.82 3.65,-12.47 4.00,-19.12 4.84,-25.92 5.68,-32.72 7.01,-38.64 8.34,-44.56 10.86,-48.10 13.38,-51.63 15.61,-52.04 17.84,-52.45 19.45,-50.33 21.06,-48.20 21.00,-44.68 20.95,-41.15 19.44,-36.03 17.94,-30.90 15.76,-24.98 13.59,-19.06 11.16,-13.94 8.74,-8.83 6.47,-5.76 4.20,-2.69 2.42,-1.02 0.64,0.64 0.56,0.71 0.47,0.78 0.37,0.83 0.27,0.87 0.16,0.89 0.05,0.91 -0.05,0.90 -0.16,0.90 -0.27,0.87 -0.37,0.83 -0.47,0.77 -0.56,0.72 -0.64,0.64 -0.72,0.56 -0.77,0.47 -0.83,0.37 -0.87,0.27 -0.90,0.16 -0.90,0.05 -0.91,-0.05 -0.89,-0.16 -0.87,-0.27 -0.83,-0.37 -0.78,-0.47 -0.71,-0.56 -0.64,-0.64 -0.64,-0.64 L -0.64,-0.64 Z"></path></g><g transform="translate(333 332) rotate(0 70.5 -83)" stroke="none"><path fill="#1e1e1e" d="M -0.53,0.70 Q -0.53,0.70 -1.78,-0.30 -3.04,-1.31 -3.07,-3.36 -3.11,-5.41 -1.62,-8.66 -0.13,-11.92 2.77,-17.02 5.69,-22.11 9.81,-28.05 13.92,-33.99 19.42,-40.85 24.91,-47.71 31.57,-54.96 38.24,-62.20 45.65,-70.44 53.06,-78.68 60.81,-87.36 68.56,-96.04 77.05,-104.64 85.54,-113.24 93.76,-120.66 101.99,-128.07 108.65,-133.80 115.30,-139.54 120.43,-143.98 125.55,-148.43 129.13,-152.01 132.71,-155.59 135.43,-158.01 138.15,-160.43 139.60,-161.91 141.04,-163.39 142.50,-164.61 143.95,-165.84 144.04,-165.90 144.12,-165.97 144.22,-166.00 144.32,-166.04 144.43,-166.04 144.53,-166.04 144.63,-166.00 144.73,-165.97 144.82,-165.91 144.90,-165.85 144.97,-165.76 145.03,-165.67 145.06,-165.57 145.08,-165.47 145.08,-165.36 145.08,-165.25 145.04,-165.16 145.00,-165.06 144.93,-164.97 144.86,-164.89 144.77,-164.84 144.68,-164.78 144.58,-164.76 144.48,-164.73 144.37,-164.74 144.26,-164.75 144.17,-164.80 144.07,-164.84 143.99,-164.91 143.91,-164.99 143.86,-165.08 143.81,-165.17 143.79,-165.28 143.78,-165.38 143.79,-165.49 143.81,-165.59 143.86,-165.69 143.91,-165.78 143.98,-165.85 144.06,-165.93 144.15,-165.97 144.25,-166.02 144.36,-166.03 144.46,-166.04 144.57,-166.02 144.67,-166.00 144.76,-165.95 144.85,-165.89 144.92,-165.81 144.99,-165.73 145.03,-165.63 145.07,-165.54 145.08,-165.43 145.09,-165.32 145.06,-165.22 145.03,-165.12 144.97,-165.03 144.91,-164.94 144.91,-164.94 144.91,-164.94 143.82,-163.41 142.72,-161.89 141.31,-160.18 139.90,-158.47 137.24,-156.09 134.59,-153.71 130.94,-150.07 127.29,-146.42 122.16,-141.97 117.03,-137.53 110.40,-131.81 103.76,-126.10 95.58,-118.75 87.41,-111.39 78.96,-102.85 70.50,-94.30 62.74,-85.63 54.98,-76.95 47.54,-68.72 40.11,-60.48 33.48,-53.31 26.85,-46.14 21.37,-39.38 15.89,-32.61 11.77,-26.79 7.65,-20.97 4.71,-15.99 1.77,-11.00 0.31,-8.13 -1.13,-5.25 -1.34,-3.69 -1.55,-2.13 -0.51,-1.42 0.53,-0.70 0.60,-0.63 0.68,-0.56 0.74,-0.47 0.80,-0.38 0.83,-0.27 0.86,-0.17 0.87,-0.07 0.88,0.03 0.86,0.14 0.85,0.24 0.80,0.34 0.76,0.44 0.70,0.52 0.63,0.61 0.55,0.68 0.47,0.74 0.37,0.79 0.28,0.84 0.17,0.86 0.07,0.88 -0.03,0.87 -0.14,0.87 -0.24,0.84 -0.34,0.81 -0.43,0.76 -0.53,0.70 -0.53,0.70 L -0.53,0.70 Z"></path></g><g transform="translate(456 148) rotate(0 17 24.5)" stroke="none"><path fill="#1e1e1e" d="M 0,-0.96 Q 0,-0.96 0.28,-1.02 0.57,-1.09 2.70,-1.10 4.84,-1.11 8.10,-0.82 11.36,-0.54 15.40,0.44 19.44,1.44 23.25,3.33 27.07,5.23 29.93,7.84 32.80,10.45 34.38,14.04 35.97,17.63 35.47,22.21 34.97,26.79 32.93,31.90 30.90,37.01 29.04,40.54 27.19,44.06 26.42,45.55 25.65,47.04 25.59,47.13 25.53,47.22 25.45,47.28 25.36,47.34 25.26,47.37 25.16,47.41 25.05,47.41 24.95,47.41 24.84,47.37 24.74,47.34 24.66,47.27 24.58,47.21 24.52,47.12 24.46,47.03 24.43,46.93 24.40,46.82 24.41,46.72 24.42,46.61 24.46,46.51 24.50,46.41 24.57,46.33 24.64,46.25 24.73,46.20 24.82,46.15 24.93,46.12 25.03,46.10 25.14,46.12 25.24,46.13 25.34,46.17 25.43,46.22 25.51,46.29 25.59,46.37 25.63,46.46 25.68,46.56 25.70,46.66 25.71,46.77 25.70,46.87 25.68,46.98 25.63,47.07 25.58,47.16 25.50,47.23 25.42,47.31 25.32,47.35 25.23,47.39 25.12,47.40 25.02,47.41 24.91,47.39 24.81,47.37 24.72,47.31 24.63,47.25 24.56,47.17 24.49,47.09 24.45,46.99 24.42,46.89 24.41,46.79 24.41,46.68 24.44,46.58 24.47,46.48 24.47,46.48 24.47,46.48 25.14,44.94 25.81,43.40 27.34,39.81 28.87,36.22 30.74,31.34 32.61,26.47 33.18,22.44 33.76,18.40 32.46,15.25 31.16,12.10 28.58,9.69 26.01,7.27 22.44,5.46 18.87,3.64 15.01,2.67 11.15,1.69 8.00,1.40 4.84,1.11 2.70,1.10 0.57,1.09 0.28,1.02 0,0.96 -0.11,0.95 -0.23,0.93 -0.33,0.89 -0.44,0.85 -0.54,0.78 -0.64,0.72 -0.71,0.63 -0.79,0.54 -0.84,0.44 -0.90,0.34 -0.93,0.22 -0.95,0.11 -0.95,-0.00 -0.95,-0.11 -0.93,-0.22 -0.90,-0.34 -0.84,-0.44 -0.79,-0.54 -0.71,-0.63 -0.64,-0.72 -0.54,-0.78 -0.44,-0.85 -0.33,-0.89 -0.23,-0.93 -0.11,-0.95 0.00,-0.96 0.00,-0.96 L 0,-0.96 Z"></path></g><g transform="translate(323 331) rotate(0 71.5 -4.5)" stroke="none"><path fill="#1e1e1e" d="M -0.46,-0.81 Q -0.46,-0.81 1.51,-2.01 3.50,-3.21 7.57,-4.90 11.64,-6.60 17.48,-7.64 23.33,-8.68 30.42,-9.13 37.52,-9.58 45.73,-9.49 53.94,-9.40 62.60,-9.08 71.26,-8.75 80.41,-8.32 89.55,-7.90 98.59,-7.72 107.63,-7.53 115.81,-7.16 123.99,-6.79 129.74,-6.40 135.49,-6.01 137.94,-5.88 140.39,-5.75 140.49,-5.73 140.60,-5.71 140.69,-5.66 140.78,-5.60 140.85,-5.53 140.92,-5.45 140.97,-5.35 141.01,-5.25 141.02,-5.15 141.03,-5.04 141.00,-4.94 140.97,-4.83 140.92,-4.74 140.86,-4.65 140.78,-4.59 140.69,-4.52 140.59,-4.48 140.49,-4.45 140.39,-4.44 140.28,-4.44 140.18,-4.47 140.08,-4.50 139.99,-4.57 139.91,-4.63 139.84,-4.71 139.78,-4.80 139.75,-4.90 139.72,-5.00 139.72,-5.11 139.73,-5.22 139.76,-5.32 139.80,-5.42 139.87,-5.50 139.93,-5.58 140.02,-5.64 140.11,-5.70 140.21,-5.72 140.32,-5.75 140.42,-5.74 140.53,-5.73 140.63,-5.69 140.72,-5.65 140.80,-5.57 140.88,-5.50 140.93,-5.41 140.99,-5.32 141.01,-5.21 141.03,-5.11 141.01,-5.00 141.00,-4.90 140.95,-4.80 140.90,-4.71 140.83,-4.63 140.75,-4.56 140.66,-4.51 140.56,-4.46 140.46,-4.45 140.35,-4.44 140.35,-4.44 140.35,-4.44 137.90,-4.44 135.45,-4.44 129.66,-4.36 123.87,-4.27 115.73,-4.64 107.58,-5.00 98.50,-5.18 89.43,-5.36 80.30,-5.79 71.17,-6.23 62.54,-6.57 53.91,-6.91 45.79,-7.04 37.66,-7.18 30.69,-6.79 23.72,-6.40 18.09,-5.47 12.47,-4.54 8.50,-2.96 4.54,-1.38 2.50,-0.28 0.46,0.81 0.36,0.86 0.25,0.90 0.14,0.92 0.03,0.94 -0.07,0.93 -0.19,0.92 -0.30,0.88 -0.40,0.84 -0.50,0.78 -0.59,0.72 -0.67,0.64 -0.75,0.56 -0.81,0.46 -0.86,0.36 -0.89,0.25 -0.93,0.14 -0.93,0.03 -0.93,-0.08 -0.91,-0.19 -0.89,-0.30 -0.84,-0.40 -0.79,-0.50 -0.72,-0.59 -0.64,-0.68 -0.55,-0.75 -0.46,-0.81 -0.46,-0.81 L -0.46,-0.81 Z"></path></g><g transform="translate(456 309) rotate(0 1 28.5)" stroke="none"><path fill="#1e1e1e" d="M 0,1.02 Q 0,1.02 -1.43,1.03 -2.87,1.05 -3.00,1.03 -3.12,1.02 -3.24,0.97 -3.36,0.93 -3.46,0.86 -3.57,0.78 -3.65,0.69 -3.74,0.59 -3.80,0.48 -3.86,0.37 -3.89,0.25 -3.92,0.12 -3.92,-0.00 -3.92,-0.12 -3.89,-0.25 -3.86,-0.37 -3.80,-0.48 -3.74,-0.59 -3.65,-0.69 -3.57,-0.78 -3.46,-0.86 -3.36,-0.93 -3.24,-0.97 -3.12,-1.02 -3.00,-1.03 -2.87,-1.05 -1.93,-0.32 -0.99,0.39 0.88,1.70 2.77,3.00 5.65,5.33 8.54,7.66 11.29,11.03 14.03,14.39 15.56,17.98 17.09,21.57 16.59,25.37 16.09,29.18 12.86,33.23 9.63,37.29 4.74,41.00 -0.13,44.72 -4.60,48.32 -9.07,51.92 -10.96,53.50 -12.84,55.08 -12.93,55.13 -13.02,55.19 -13.12,55.21 -13.23,55.24 -13.33,55.23 -13.44,55.22 -13.54,55.18 -13.63,55.14 -13.71,55.06 -13.79,54.99 -13.84,54.90 -13.89,54.81 -13.91,54.70 -13.93,54.60 -13.92,54.49 -13.90,54.39 -13.85,54.29 -13.81,54.20 -13.73,54.12 -13.66,54.05 -13.56,54.00 -13.46,53.96 -13.36,53.94 -13.25,53.93 -13.15,53.95 -13.05,53.97 -12.95,54.02 -12.86,54.08 -12.79,54.15 -12.72,54.23 -12.68,54.33 -12.64,54.43 -12.63,54.54 -12.62,54.64 -12.65,54.74 -12.67,54.85 -12.73,54.94 -12.79,55.03 -12.87,55.09 -12.96,55.16 -13.06,55.19 -13.16,55.23 -13.26,55.23 -13.37,55.23 -13.47,55.20 -13.57,55.17 -13.66,55.11 -13.74,55.05 -13.80,54.96 -13.87,54.87 -13.90,54.77 -13.93,54.67 -13.92,54.56 -13.92,54.46 -13.88,54.36 -13.85,54.26 -13.78,54.18 -13.71,54.09 -13.71,54.09 -13.71,54.09 -11.92,52.41 -10.12,50.73 -5.94,46.66 -1.75,42.58 2.90,39.07 7.55,35.56 10.54,32.07 13.53,28.58 14.13,25.46 14.72,22.34 13.43,19.11 12.14,15.89 9.59,12.68 7.05,9.48 4.24,7.17 1.44,4.86 -0.71,2.96 -2.87,1.05 -3.00,1.03 -3.12,1.02 -3.24,0.97 -3.36,0.93 -3.46,0.86 -3.57,0.78 -3.65,0.69 -3.74,0.59 -3.80,0.48 -3.86,0.37 -3.89,0.25 -3.92,0.12 -3.92,0.00 -3.92,-0.12 -3.89,-0.25 -3.86,-0.37 -3.80,-0.48 -3.74,-0.59 -3.65,-0.69 -3.57,-0.78 -3.46,-0.86 -3.36,-0.93 -3.24,-0.97 -3.12,-1.02 -3.00,-1.03 -2.87,-1.05 -1.43,-1.03 0,-1.02 0.12,-1.00 0.24,-0.99 0.35,-0.94 0.47,-0.90 0.57,-0.83 0.67,-0.76 0.75,-0.67 0.83,-0.57 0.89,-0.47 0.95,-0.36 0.98,-0.24 1.01,-0.12 1.01,0.00 1.01,0.12 0.98,0.24 0.95,0.36 0.89,0.47 0.83,0.57 0.75,0.67 0.67,0.76 0.57,0.83 0.47,0.90 0.35,0.94 0.24,0.99 0.12,1.00 -0.00,1.02 -0.00,1.02 L 0,1.02 Z"></path></g><g transform="translate(331 326) rotate(0 31.5 100)" stroke="none"><path fill="#1e1e1e" d="M 0.28,0.85 Q 0.28,0.85 -0.48,1.11 -1.24,1.37 -1.67,2.47 -2.09,3.57 -2.30,5.66 -2.50,7.74 -1.47,11.09 -0.44,14.43 1.43,18.74 3.30,23.05 5.83,28.64 8.37,34.22 11.19,40.62 14.00,47.03 16.93,54.07 19.87,61.11 22.84,68.41 25.82,75.71 28.82,83.42 31.82,91.13 34.54,99.02 37.27,106.92 39.86,114.58 42.46,122.24 44.72,129.53 46.97,136.83 48.81,143.98 50.64,151.13 52.27,157.31 53.91,163.50 55.46,168.69 57.01,173.89 58.53,178.38 60.05,182.88 61.53,186.17 63.01,189.47 64.17,192.06 65.33,194.65 66.19,196.72 67.06,198.80 67.09,198.90 67.13,198.99 67.14,199.10 67.14,199.21 67.11,199.31 67.08,199.41 67.02,199.50 66.96,199.58 66.87,199.65 66.79,199.71 66.69,199.74 66.59,199.78 66.48,199.77 66.37,199.77 66.27,199.74 66.17,199.70 66.09,199.64 66.01,199.57 65.95,199.48 65.89,199.39 65.86,199.29 65.84,199.19 65.84,199.08 65.85,198.98 65.89,198.88 65.93,198.78 66.00,198.70 66.07,198.62 66.16,198.57 66.26,198.51 66.36,198.49 66.46,198.47 66.57,198.48 66.67,198.50 66.77,198.54 66.87,198.59 66.94,198.66 67.02,198.74 67.07,198.83 67.11,198.93 67.13,199.03 67.15,199.14 67.13,199.24 67.11,199.35 67.06,199.44 67.01,199.53 66.93,199.60 66.85,199.68 66.75,199.72 66.66,199.76 66.55,199.77 66.44,199.78 66.34,199.76 66.24,199.73 66.15,199.68 66.06,199.62 65.99,199.54 65.92,199.46 65.92,199.46 65.92,199.46 64.49,197.59 63.06,195.72 61.79,193.16 60.52,190.59 58.98,187.18 57.44,183.76 55.91,179.22 54.38,174.68 52.81,169.44 51.25,164.20 49.61,158.01 47.98,151.81 46.17,144.72 44.36,137.64 42.12,130.37 39.88,123.11 37.30,115.45 34.72,107.79 32.04,99.94 29.35,92.09 26.38,84.39 23.41,76.69 20.46,69.39 17.51,62.08 14.62,55.05 11.72,48.02 8.94,41.62 6.16,35.21 3.65,29.59 1.15,23.97 -0.72,19.52 -2.61,15.06 -3.64,11.31 -4.67,7.55 -4.32,5.10 -3.96,2.66 -3.08,1.21 -2.20,-0.22 -1.24,-0.54 -0.28,-0.85 -0.17,-0.87 -0.07,-0.89 0.03,-0.89 0.14,-0.89 0.24,-0.86 0.35,-0.82 0.44,-0.77 0.54,-0.72 0.62,-0.64 0.69,-0.57 0.75,-0.47 0.81,-0.38 0.84,-0.28 0.88,-0.17 0.89,-0.07 0.90,0.03 0.88,0.14 0.86,0.25 0.82,0.35 0.78,0.45 0.71,0.53 0.65,0.62 0.56,0.69 0.48,0.76 0.38,0.80 0.28,0.85 0.28,0.85 L 0.28,0.85 Z"></path></g><g transform="translate(373 517) rotate(0 17.5 -10)" stroke="none"><path fill="#1e1e1e" d="M 0.68,0.68 Q 0.68,0.68 0.16,1.31 -0.36,1.93 -0.46,2.01 -0.57,2.10 -0.69,2.15 -0.81,2.21 -0.95,2.23 -1.08,2.25 -1.21,2.25 -1.35,2.24 -1.47,2.20 -1.60,2.16 -1.72,2.09 -1.83,2.02 -1.93,1.93 -2.02,1.83 -2.09,1.72 -2.16,1.60 -2.20,1.47 -2.24,1.35 -2.25,1.21 -2.25,1.08 -2.23,0.95 -2.21,0.81 -2.15,0.69 -2.10,0.57 -2.01,0.46 -1.93,0.36 -0.34,0.76 1.25,1.16 3.48,1.59 5.71,2.01 8.44,2.50 11.17,3.00 14.05,3.49 16.94,3.97 19.44,3.89 21.94,3.81 24.22,2.42 26.49,1.03 28.25,-1.42 30.00,-3.88 31.34,-8.25 32.67,-12.62 33.77,-16.48 34.86,-20.33 35.33,-21.99 35.80,-23.65 35.84,-23.75 35.88,-23.85 35.95,-23.93 36.02,-24.01 36.11,-24.07 36.20,-24.12 36.30,-24.14 36.41,-24.17 36.51,-24.15 36.62,-24.14 36.71,-24.10 36.81,-24.05 36.89,-23.98 36.96,-23.91 37.01,-23.81 37.06,-23.72 37.08,-23.61 37.10,-23.51 37.08,-23.40 37.06,-23.30 37.01,-23.20 36.96,-23.11 36.88,-23.04 36.81,-22.97 36.71,-22.92 36.61,-22.88 36.51,-22.87 36.40,-22.85 36.30,-22.88 36.19,-22.90 36.10,-22.96 36.01,-23.01 35.94,-23.09 35.88,-23.17 35.84,-23.27 35.80,-23.37 35.79,-23.48 35.79,-23.58 35.82,-23.69 35.84,-23.79 35.90,-23.88 35.96,-23.96 36.05,-24.03 36.13,-24.09 36.23,-24.13 36.34,-24.16 36.44,-24.16 36.55,-24.16 36.65,-24.12 36.75,-24.09 36.83,-24.02 36.92,-23.96 36.98,-23.87 37.04,-23.78 37.06,-23.68 37.09,-23.58 37.09,-23.47 37.08,-23.37 37.08,-23.37 37.08,-23.37 36.79,-21.67 36.51,-19.96 35.84,-15.91 35.16,-11.86 33.69,-7.08 32.21,-2.31 30.05,0.49 27.90,3.31 25.03,4.85 22.16,6.40 19.33,6.47 16.50,6.53 13.61,6.01 10.71,5.50 7.95,4.98 5.19,4.46 2.63,3.86 0.06,3.26 -0.14,2.59 -0.36,1.93 -0.46,2.01 -0.57,2.10 -0.69,2.15 -0.81,2.21 -0.95,2.23 -1.08,2.25 -1.21,2.25 -1.35,2.24 -1.47,2.20 -1.60,2.16 -1.72,2.09 -1.83,2.02 -1.93,1.93 -2.02,1.83 -2.09,1.72 -2.16,1.60 -2.20,1.47 -2.24,1.35 -2.25,1.21 -2.25,1.08 -2.23,0.95 -2.21,0.81 -2.15,0.69 -2.10,0.57 -2.01,0.46 -1.93,0.36 -1.31,-0.16 -0.68,-0.68 -0.59,-0.76 -0.50,-0.83 -0.39,-0.88 -0.29,-0.93 -0.17,-0.95 -0.05,-0.97 0.05,-0.96 0.17,-0.95 0.28,-0.92 0.40,-0.88 0.50,-0.82 0.60,-0.76 0.68,-0.68 0.76,-0.60 0.82,-0.50 0.88,-0.40 0.92,-0.28 0.95,-0.17 0.96,-0.05 0.97,0.05 0.95,0.17 0.93,0.29 0.88,0.39 0.83,0.50 0.76,0.59 0.68,0.69 0.68,0.68 L 0.68,0.68 Z"></path></g><g transform="translate(818 18) rotate(0 21.5 339.5)" stroke="none"><path fill="#1e1e1e" d="M -0.82,0.49 Q -0.82,0.49 -1.71,-1.00 -2.60,-2.50 -2.34,-4.40 -2.08,-6.29 -0.43,-7.14 1.21,-7.98 3.74,-6.51 6.28,-5.04 9.10,-1.12 11.93,2.78 14.00,8.54 16.07,14.30 17.52,21.66 18.98,29.02 19.59,37.93 20.21,46.85 19.61,57.57 19.01,68.30 17.60,80.05 16.20,91.81 14.16,105.14 12.13,118.48 10.40,133.03 8.68,147.59 7.95,161.51 7.22,175.42 8.34,187.60 9.47,199.77 12.51,209.45 15.54,219.14 19.93,225.46 24.31,231.78 28.96,235.27 33.61,238.76 37.28,240.52 40.94,242.29 42.77,243.83 44.60,245.37 44.21,247.20 43.82,249.02 41.23,251.95 38.64,254.89 35.94,259.12 33.24,263.35 30.98,269.10 28.72,274.84 27.48,282.08 26.24,289.33 25.71,297.28 25.17,305.23 25.80,314.00 26.43,322.78 26.99,332.89 27.55,343.00 28.36,354.46 29.18,365.93 29.81,378.58 30.45,391.24 30.72,404.68 30.99,418.13 31.11,431.60 31.23,445.08 31.00,458.58 30.77,472.08 30.38,486.16 30.00,500.24 29.55,513.98 29.11,527.73 28.63,541.62 28.16,555.51 27.38,568.91 26.61,582.30 25.42,595.49 24.23,608.67 22.29,620.93 20.34,633.19 17.49,643.91 14.64,654.64 11.68,662.95 8.72,671.27 6.31,675.87 3.90,680.46 2.91,682.40 1.92,684.34 1.86,684.43 1.80,684.51 1.72,684.58 1.63,684.64 1.53,684.68 1.43,684.71 1.33,684.71 1.22,684.71 1.12,684.68 1.02,684.65 0.93,684.59 0.85,684.52 0.79,684.43 0.73,684.35 0.70,684.24 0.67,684.14 0.67,684.04 0.68,683.93 0.72,683.83 0.75,683.73 0.82,683.65 0.89,683.57 0.98,683.51 1.07,683.46 1.17,683.43 1.28,683.41 1.38,683.42 1.49,683.43 1.59,683.48 1.68,683.52 1.76,683.59 1.84,683.66 1.89,683.76 1.94,683.85 1.96,683.96 1.98,684.06 1.96,684.17 1.94,684.27 1.89,684.36 1.85,684.46 1.77,684.53 1.69,684.61 1.60,684.65 1.50,684.70 1.40,684.71 1.29,684.72 1.19,684.70 1.08,684.68 0.99,684.62 0.90,684.57 0.83,684.49 0.76,684.41 0.72,684.31 0.68,684.21 0.67,684.11 0.67,684.00 0.69,683.90 0.72,683.80 0.72,683.80 0.72,683.80 1.52,681.77 2.32,679.75 4.13,675.02 5.94,670.29 8.84,662.08 11.75,653.87 14.57,643.29 17.40,632.72 19.34,620.56 21.29,608.41 22.48,595.27 23.68,582.13 24.47,568.77 25.25,555.41 25.74,541.52 26.22,527.63 26.68,513.90 27.14,500.16 27.54,486.10 27.93,472.03 28.18,458.57 28.42,445.10 28.31,431.64 28.20,418.18 27.94,404.78 27.67,391.38 27.04,378.75 26.42,366.12 25.61,354.64 24.80,343.15 24.24,333.06 23.69,322.98 23.06,314.01 22.43,305.04 22.98,296.95 23.53,288.86 24.85,281.35 26.17,273.84 28.58,267.87 30.99,261.91 33.87,257.52 36.75,253.14 39.15,250.69 41.56,248.24 42.12,246.86 42.67,245.48 41.31,244.90 39.95,244.31 36.11,242.43 32.26,240.56 27.37,236.82 22.47,233.09 17.93,226.47 13.38,219.85 10.29,209.92 7.20,199.99 6.07,187.65 4.94,175.31 5.68,161.31 6.42,147.32 8.15,132.73 9.88,118.14 11.92,104.84 13.95,91.54 15.36,79.86 16.77,68.17 17.38,57.59 17.99,47.00 17.39,38.22 16.80,29.44 15.40,22.24 14.00,15.03 12.07,9.53 10.14,4.02 7.60,0.38 5.06,-3.26 3.09,-4.71 1.12,-6.15 0.29,-5.75 -0.52,-5.34 -0.68,-4.29 -0.84,-3.24 -0.00,-1.86 0.82,-0.49 0.87,-0.38 0.92,-0.28 0.94,-0.16 0.96,-0.05 0.95,0.06 0.94,0.17 0.91,0.28 0.87,0.39 0.81,0.49 0.75,0.59 0.67,0.67 0.59,0.76 0.49,0.82 0.39,0.88 0.28,0.91 0.17,0.94 0.05,0.95 -0.06,0.96 -0.17,0.94 -0.28,0.91 -0.39,0.87 -0.50,0.82 -0.59,0.75 -0.68,0.67 -0.75,0.58 -0.82,0.49 -0.82,0.49 L -0.82,0.49 Z"></path></g></svg>